<svg id="Livello_1" data-name="Livello 1" xmlns="http://www.w3.org/2000/svg" xmlns:xlink="http://www.w3.org/1999/xlink" viewBox="0 0 839.45 254.36"><defs><style>.cls-1,.cls-16{fill:none;}.cls-2{fill:#6a72ff;}.cls-3{clip-path:url(#clip-path);}.cls-4{fill:#54b361;}.cls-5{fill:#397f00;}.cls-6{fill:#6dcc6d;}.cls-7,.cls-9{fill:#fff;}.cls-8{fill:#fdfffd;}.cls-16,.cls-8,.cls-9{stroke:#000;stroke-miterlimit:10;}.cls-10{font-size:74px;font-family:MyriadPro-Regular, Myriad Pro;}.cls-11{letter-spacing:0em;}.cls-12{letter-spacing:-0.02em;}.cls-13{letter-spacing:-0.05em;}.cls-14{letter-spacing:0.02em;}.cls-15{letter-spacing:0em;}.cls-16{stroke-linecap:round;stroke-width:3px;stroke-dasharray:5 6;}</style><clipPath id="clip-path" transform="translate(-232.55 -249.99)"><ellipse class="cls-1" cx="369.97" cy="376.59" rx="116.25" ry="119.61"/></clipPath></defs><title>EsasmusTracking</title><g id="Livello_1-2" data-name="Livello 1-2"><path class="cls-2" d="M485.93,376.59c0,66.06-54.8,126.59-122.76,126.59s-123-56.69-123-126.59,58.72-120.2,126.67-120.2S485.93,310.82,485.93,376.59Z" transform="translate(-232.55 -249.99)"/><g class="cls-3"><path class="cls-4" d="M370,495.1a18.51,18.51,0,0,1-5.07-.69,1.13,1.13,0,0,1-.59-1.79c.3-.39.22-.61.19-.7a1.09,1.09,0,0,0-.71-.65h-.11a16.48,16.48,0,0,0-3.78-.88,1.14,1.14,0,0,1-1-1,12.08,12.08,0,0,0-.45-2.23,9.16,9.16,0,0,1,.64-7.3,5.28,5.28,0,0,0,.5-3.74,8.44,8.44,0,0,1,.66-5.24,10.3,10.3,0,0,0,.8-2.24,32.08,32.08,0,0,0,.2-8.7,3.39,3.39,0,0,0-2.27-2.83,25.31,25.31,0,0,1-13.83-14.28,8.63,8.63,0,0,0-4.3-4.59,1.93,1.93,0,0,1-1-2.5l0-.07a2.52,2.52,0,0,1-.66-2.06,2.59,2.59,0,0,1,1.34-1.86,4.43,4.43,0,0,0,.46-.29,2.44,2.44,0,0,1-.84-3.86,3,3,0,0,0,.69-2.17,2.39,2.39,0,0,1,2-2.62c.42-.54.89-1.14,1.42-1.87l.23-.31a7,7,0,0,0,.67-1,5.45,5.45,0,0,0,.24-3.29,8.63,8.63,0,0,1,2.15-7.69,5.47,5.47,0,0,0,1.14-2.17,2.77,2.77,0,0,1,1.74-1.9,4.47,4.47,0,0,0,1.82-1,2.58,2.58,0,0,1,.74-.33h0l.08-.06a4.23,4.23,0,0,0,.51-.44,1.1,1.1,0,0,1,.85-.49H355a5.19,5.19,0,0,0,.71-.35,1.08,1.08,0,0,1,.55-.15,1.19,1.19,0,0,1,.46.1,1.12,1.12,0,0,1,.64.82,1.7,1.7,0,0,0,.09.4c.11.74.19,1.54.25,2.43a4.09,4.09,0,0,1,3.6-2.28,4.15,4.15,0,0,1,3,1.43c.24.24.35.24.42.24a.85.85,0,0,0,.31-.06,5,5,0,0,1,1.49-.26,4.07,4.07,0,0,1,2.62,1,1.44,1.44,0,0,0,1,.4,2.16,2.16,0,0,0,.75-.17,4.55,4.55,0,0,1,1.54-.28,5.05,5.05,0,0,1,2.48.71,7.59,7.59,0,0,0,1.58.61,2.73,2.73,0,0,1,2.12,2.06c.09.43.22.69,1.1.74a5,5,0,0,1,4.23,2.56,4.58,4.58,0,0,0,3.94,2.47,6.09,6.09,0,0,0,.85-.07A8.76,8.76,0,0,1,398.7,421a2.51,2.51,0,0,0,.77,1.39,2.38,2.38,0,0,1,.65,2.67,19.65,19.65,0,0,1,10.41,2.86,17.38,17.38,0,0,0,6.3,2.35,9.49,9.49,0,0,1,5.14,2.11,3.23,3.23,0,0,0,2.27.82,3.19,3.19,0,0,1,3.27,3.11v.24a17.4,17.4,0,0,1-.16,2.5,7.74,7.74,0,0,1-2.43,5l-2.84,2.41a3.24,3.24,0,0,0-1.13,2.32,21.71,21.71,0,0,1-4.49,11.34,7,7,0,0,0-1.28,2.42,5.27,5.27,0,0,1-4.87,3.77,9.57,9.57,0,0,0-2,.3c-1.23.33-2.47.73-3.67,1.11l-.93.3a2.89,2.89,0,0,0-2.34,3.17,3.38,3.38,0,0,1-1.91,3.09,5.61,5.61,0,0,0-1.67,1.27,20.37,20.37,0,0,1-9.4,7.22,3,3,0,0,0-1.73,1.34,4.57,4.57,0,0,1-4.19,2.71,6.42,6.42,0,0,1-1.38-.16,4.81,4.81,0,0,0-.85-.1,2,2,0,0,0-1.81.94,4.39,4.39,0,0,1-3.75,2.5c-1.16.08-1.93.94-2.81,1.94l-.16.17v.14c-.08.22-.09.49.09.59a1.18,1.18,0,0,1,.45,1.58,1.11,1.11,0,0,1-.92.61A13.67,13.67,0,0,1,370,495.1Z" transform="translate(-232.55 -249.99)"/><path class="cls-5" d="M356.33,402.86a.58.58,0,0,0,.07.34,33.59,33.59,0,0,1,.31,3.61,1.81,1.81,0,0,0,1.06,1.72,2.37,2.37,0,0,0,.64.14,2.31,2.31,0,0,0,.1-.64,3.1,3.1,0,0,1,1.56-3.37,2.81,2.81,0,0,1,1.3-.32,3,3,0,0,1,2.24,1,1.67,1.67,0,0,0,1.24.61,2.15,2.15,0,0,0,.66-.13,3.68,3.68,0,0,1,1.14-.19,3,3,0,0,1,1.91.7,2.57,2.57,0,0,0,1.67.65,3.35,3.35,0,0,0,1.13-.23,3.3,3.3,0,0,1,1.16-.21,3.89,3.89,0,0,1,1.93.56,8.13,8.13,0,0,0,1.83.7,1.62,1.62,0,0,1,1.31,1.19,2,2,0,0,0,2.17,1.63,4,4,0,0,1,3.34,2.06,5.68,5.68,0,0,0,4.87,3,6.74,6.74,0,0,0,1-.08,7.6,7.6,0,0,1,8.65,5.61,3.74,3.74,0,0,0,1.12,1.94,1.2,1.2,0,0,1,.26,1.54c-.52,1.08-.36,1.41.76,1.41h.32a18.52,18.52,0,0,1,9.86,2.75,18.45,18.45,0,0,0,6.69,2.49,8.49,8.49,0,0,1,4.57,1.85,4.35,4.35,0,0,0,3,1.1,2,2,0,0,1,2.14,1.91,1.4,1.4,0,0,1,0,.29,14.94,14.94,0,0,1-.15,2.31,6.67,6.67,0,0,1-2,4.33l-2.84,2.39a4.46,4.46,0,0,0-1.55,3.09,20.51,20.51,0,0,1-4.24,10.71,8.29,8.29,0,0,0-1.48,2.82,4.12,4.12,0,0,1-3.84,3,11.1,11.1,0,0,0-2.29.33c-1.56.43-3.1.93-4.64,1.42a4,4,0,0,0-3.14,4.27,2.26,2.26,0,0,1-1.33,2.06,6.47,6.47,0,0,0-2,1.59,19.22,19.22,0,0,1-8.87,6.87,4.13,4.13,0,0,0-2.33,1.86,3.47,3.47,0,0,1-3.21,2.06,4.92,4.92,0,0,1-1.14-.13,5,5,0,0,0-1.09-.12,3,3,0,0,0-2.82,1.54,3.27,3.27,0,0,1-2.82,1.9c-1.73.12-2.72,1.37-3.77,2.54a1.4,1.4,0,0,0-.24.49,1.6,1.6,0,0,0,.63,2H370a17.17,17.17,0,0,1-4.78-.65,2,2,0,0,0-.25-2.77,1.85,1.85,0,0,0-.88-.42,16.83,16.83,0,0,0-4-.94,12.38,12.38,0,0,0-.52-2.34,8.07,8.07,0,0,1,.54-6.4,6.42,6.42,0,0,0,.63-4.53,7.22,7.22,0,0,1,.57-4.51,11.55,11.55,0,0,0,.89-2.49,32.6,32.6,0,0,0,.22-9,4.5,4.5,0,0,0-3-3.82,24.19,24.19,0,0,1-13.22-13.68,9.75,9.75,0,0,0-4.83-5.16c-.5-.27-.69-.62-.48-1.12a1,1,0,0,0-.22-1.19,1.29,1.29,0,0,1,0-1.79,1.26,1.26,0,0,1,.38-.27,5.21,5.21,0,0,0,.74-.48c1-.83.89-1.35-.26-1.84a1.29,1.29,0,0,1-.84-1.59,1.23,1.23,0,0,1,.3-.52,4,4,0,0,0,1-3,1.24,1.24,0,0,1,1-1.4h.1a1.26,1.26,0,0,0,.63-.41c.51-.62,1-1.27,1.47-1.91a9.32,9.32,0,0,0,1-1.55,6.57,6.57,0,0,0,.32-4,7.49,7.49,0,0,1,1.92-6.59,6.65,6.65,0,0,0,1.4-2.62c.13-.44.52-1,.89-1.11a5.62,5.62,0,0,0,2.26-1.17c.19-.14.51-.12.7-.28a4.15,4.15,0,0,0,.91-.82h.76a6,6,0,0,0,1.06-.5m0-2.32a2.28,2.28,0,0,0-1.11.3l-.39.21h-.46a2.26,2.26,0,0,0-1.67.92l-.21.16a3.14,3.14,0,0,0-.93.47,3.71,3.71,0,0,1-1.39.76,3.92,3.92,0,0,0-2.59,2.7,4.05,4.05,0,0,1-.88,1.71,9.93,9.93,0,0,0-2.43,8.7,4.29,4.29,0,0,1-.15,2.58,6.45,6.45,0,0,1-.54.82l-.25.32c-.43.58-.82,1.1-1.19,1.55a3.52,3.52,0,0,0-2.48,3.73,1.82,1.82,0,0,1-.43,1.34,3.72,3.72,0,0,0-.78,3.23,3.56,3.56,0,0,0,.62,1.3,3.59,3.59,0,0,0-.51,4.51,3.11,3.11,0,0,0,1.76,3.36,7.49,7.49,0,0,1,3.76,4,26.43,26.43,0,0,0,14.42,14.95,2.19,2.19,0,0,1,1.58,1.84,30.62,30.62,0,0,1-.17,8.39,10,10,0,0,1-.72,2,9.55,9.55,0,0,0-.75,6,4,4,0,0,1-.38,2.93,10.38,10.38,0,0,0-.74,8.25,10.46,10.46,0,0,1,.44,1.9,2.3,2.3,0,0,0,2,2.06,15,15,0,0,1,3.42.77,2.37,2.37,0,0,0,1,3.14,2.74,2.74,0,0,0,.4.15,19.88,19.88,0,0,0,5.37.74h1.37a2.31,2.31,0,0,0,2.12-2.48,2.36,2.36,0,0,0-.5-1.31c.76-.83,1.2-1.2,1.77-1.24a5.55,5.55,0,0,0,4.67-3.1c.15-.29.58-.33.82-.33a3.08,3.08,0,0,1,.61.07,7.39,7.39,0,0,0,1.62.19,5.67,5.67,0,0,0,5.18-3.31,2,2,0,0,1,1.13-.81,21.71,21.71,0,0,0,9.92-7.65,4.83,4.83,0,0,1,1.3-.95,4.57,4.57,0,0,0,2.51-4.13c0-1.28.34-1.71,1.53-2.06l.89-.29c1.2-.38,2.45-.77,3.67-1.1a7.47,7.47,0,0,1,1.82-.26,6.39,6.39,0,0,0,5.89-4.61,5.94,5.94,0,0,1,1.1-2.06,23.09,23.09,0,0,0,4.71-11.92,2.13,2.13,0,0,1,.73-1.55c.49-.4,1-.81,1.45-1.22l1.38-1.17a8.78,8.78,0,0,0,2.83-5.76,17.29,17.29,0,0,0,.18-2.69,4.36,4.36,0,0,0-4.17-4.52h-.22a2.07,2.07,0,0,1-1.52-.52,10.62,10.62,0,0,0-5.72-2.4,16.15,16.15,0,0,1-5.9-2.19,20.66,20.66,0,0,0-9.67-3,3.47,3.47,0,0,0-1.21-2.43,1.5,1.5,0,0,1-.42-.83,10,10,0,0,0-11.17-7.22,3.86,3.86,0,0,1-.68,0c-.81,0-1.87-.22-3-2a6.13,6.13,0,0,0-5.13-3.09h-.08a3.86,3.86,0,0,0-2.87-2.72,7.34,7.34,0,0,1-1.35-.51,6,6,0,0,0-3-.85,5.52,5.52,0,0,0-1.92.35,1.18,1.18,0,0,1-.37.09.47.47,0,0,1-.25-.13,5.18,5.18,0,0,0-3.33-1.22,5.38,5.38,0,0,0-1.59.24,5.18,5.18,0,0,0-3.69-1.59,5,5,0,0,0-2.3.57,3,3,0,0,0-.43.24.74.74,0,0,0-.08-.41v-.05a2.29,2.29,0,0,0-2.22-1.82Z" transform="translate(-232.55 -249.99)"/><path class="cls-4" d="M378.32,285.78a1.5,1.5,0,0,1-.47-.08c-.27-.11-.53-.23-.79-.36a5,5,0,0,0-2.06-.61,1.82,1.82,0,0,0-.57.07,2,2,0,0,1-.42.05,1.74,1.74,0,0,1-1.6-1.24.17.17,0,0,0,0-.1h-2a1.63,1.63,0,0,1-1.67-1.56c0-.18,0-.28-.46-.49l-.84-.44a15.83,15.83,0,0,0-1.65-.82,2.83,2.83,0,0,0-1.07-.24,1.79,1.79,0,0,0-1.09.37,4.47,4.47,0,0,1-2.79.87,13,13,0,0,1-1.65-.14h-.31a1.36,1.36,0,0,1-1.1-1.14,1.62,1.62,0,0,1,.69-1.36,14.64,14.64,0,0,1,2-.95,1.83,1.83,0,0,1,1.4.11,1.15,1.15,0,0,0,.55.11,1.63,1.63,0,0,0,.58-.13,9.15,9.15,0,0,1,1.55-.35l.63-.1a1.59,1.59,0,0,1-.34-1.15,1.68,1.68,0,0,1,1.23-1.28,2.07,2.07,0,0,0,1.15-.72c.16-.15.32-.3.5-.45a3.12,3.12,0,0,0-1.42-1,14.13,14.13,0,0,1-2.32-1c-.36-.2-.71-.38-1.08-.55s-.85-.38-1.28-.55l-1.9-.8-.28-.13-.21-.09-1.18-.49a1.45,1.45,0,0,1-.39.3,4.84,4.84,0,0,1-1,.31l-.41.1-.4.12a1.9,1.9,0,0,0-.57.18,3.8,3.8,0,0,1-2.57,1H351l-.55.06-3.15.08h-2.74l-.49.06a5,5,0,0,1-.66.08h-.15a1.7,1.7,0,0,1-1-.27,1.24,1.24,0,0,1-.45-.86,1.26,1.26,0,0,1,.08-.64,1.39,1.39,0,0,1-.55-.47,1.55,1.55,0,0,1,0-1.53c.31-.52.64-1,1-1.52l.25-.38a1.23,1.23,0,0,1,.61-.42L344,265l1.22-.35.14-.08a2.38,2.38,0,0,1,.45-.23H346a2.49,2.49,0,0,1,.8-.17.82.82,0,0,1,.64.27,2,2,0,0,1,.4,1.27v.14a4.09,4.09,0,0,1,0,.7v.21l.28.15a1.83,1.83,0,0,1,.72-1.11,2.59,2.59,0,0,0,.4-.63,2.76,2.76,0,0,1,2.5-1.76,3.34,3.34,0,0,1,.77.12,1.87,1.87,0,0,0,.4.07.49.49,0,0,0,.4-.21,1.77,1.77,0,0,1,1.16-.41,1.48,1.48,0,0,1,.71.16,1.71,1.71,0,0,1,.72,1,2.6,2.6,0,0,0,.1.25,1,1,0,0,1,.06.53v.27l.2-.07a2.51,2.51,0,0,1,1.16-.31,1.9,1.9,0,0,1,1.47.71,4.44,4.44,0,0,1,2.64-1.53l.65-.19a2.54,2.54,0,0,1,.37-.1.67.67,0,0,0,.2,0,1.81,1.81,0,0,1,1-.3,2.58,2.58,0,0,1,1.3.48,2.75,2.75,0,0,0,.41.24.81.81,0,0,1,.47.49,1.27,1.27,0,0,1,0,.94.54.54,0,0,1-.07.13h.38a4.63,4.63,0,0,0,1.84-.35,4.89,4.89,0,0,1,2-.16c2,0,5.37.1,5.91.79a.94.94,0,0,1,.15.94,1.15,1.15,0,0,1-.54.57,5.88,5.88,0,0,1,1.11.11,1.21,1.21,0,0,1,.87,1.15.9.9,0,0,1-.28.69,1.14,1.14,0,0,1-.77.38h-.05a1.41,1.41,0,0,1-.06.22c-.08.26-.18.52-.28.78l-.06.15h.18a4.33,4.33,0,0,1,1.91.57,3.48,3.48,0,0,0,1.1.27c.3,0,.6.1.9.17a3.78,3.78,0,0,1,1.57.7,2.13,2.13,0,0,0,1.55.56,3.15,3.15,0,0,1,1,.22,3.31,3.31,0,0,0,.42.12l.58.1a3.06,3.06,0,0,1,.66.12h.12a1.45,1.45,0,0,1,1.1.59,1.76,1.76,0,0,1-.06,1.55,2.68,2.68,0,0,1-2.48,1.72h-.44a1.49,1.49,0,0,1-.76,1.11,1.53,1.53,0,0,1-.36.07,1.69,1.69,0,0,1-.76-.23l-.17-.07a3.73,3.73,0,0,1-.4-.2,1.52,1.52,0,0,0-.42-.16,1.4,1.4,0,0,1-1.48-1.32v-.05c-.27-.11-.6-.21-.93-.32s-.84-.29-1.27-.46a.89.89,0,0,1-.16.55,1.63,1.63,0,0,1-.42.45l.39.26a9.81,9.81,0,0,0,2.53,1.31,4.93,4.93,0,0,1,1.89,1.3l.5.45a1.58,1.58,0,0,1,.46,1.25,1.66,1.66,0,0,1-.27.75.15.15,0,0,1-.07.15.71.71,0,0,1-.49.4h-.34l-.08.13a.67.67,0,0,1-.5.27h-.24a2.33,2.33,0,0,1-.53.06,1.14,1.14,0,0,1-.37-.05l-1.24-.32c.22.18.44.36.64.55a1.45,1.45,0,0,1,.38,1,.81.81,0,0,0,0,.22.78.78,0,0,1-.13.56.71.71,0,0,1-.49.28h-.23A3.24,3.24,0,0,1,378.32,285.78Z" transform="translate(-232.55 -249.99)"/><path class="cls-5" d="M354.42,263.66a1,1,0,0,1,.38.08c.26.14.36.62.52.95V266a5.53,5.53,0,0,0,1.2-.29,2,2,0,0,1,.86-.23,1.25,1.25,0,0,1,1,.5.62.62,0,0,0,.49.26.64.64,0,0,0,.52-.3c.75-1,1.92-1.15,3-1.51a3.53,3.53,0,0,0,.72-.22,1.2,1.2,0,0,1,.61-.2c.53,0,1,.48,1.45.67.1,0,.17.35.12.49s-.27.26-.42.37l-.5.34a1.69,1.69,0,0,0,.55.32,8.55,8.55,0,0,0,1.34.11,5.34,5.34,0,0,0,2.12-.41,7.27,7.27,0,0,1,1.68-.11c2,0,5.1.19,5.36.52s-1.22.8-2.18.9a.73.73,0,0,0-.38-.08h-.18c-.19.06-.14.09.06.09h.5a.12.12,0,0,1,.05.05,5.28,5.28,0,0,1,.23,1c.45-.06,1-.18,1.59-.21h.34a6.64,6.64,0,0,1,1.18.1c.12,0,.27.3.28.46s-.23.32-.35.32h-.13c-.47,0-.57.36-.68.76a8.4,8.4,0,0,1-.34.91c-.22.57,0,1,.49,1h.37a3.59,3.59,0,0,1,1.62.51,11.89,11.89,0,0,0,2.11.47,3,3,0,0,1,1.28.55,2.88,2.88,0,0,0,2,.74,7.16,7.16,0,0,1,1.27.32c.41.09.84.12,1.25.22s.64.1.75.29a1,1,0,0,1-.08.82,2,2,0,0,1-1.85,1.33,2.76,2.76,0,0,1-.57-.06h-.19c-.25,0-.32.16-.35.49a1,1,0,0,1-.36.72h-.09a2.26,2.26,0,0,1-.67-.25,4.41,4.41,0,0,0-1-.42c-.53,0-.79-.21-.81-.79,0-.13-.19-.33-.33-.39-.82-.31-1.66-.55-2.48-.89a1.56,1.56,0,0,0-.52-.15c-.21,0-.25.18-.27.68v.34c0,.07-.27.35-.41.35h0c-.12,0-.28-.23-.35-.39s0-.31,0-.47l-.16-.08c-.17.27-.46.54-.46.8a1.18,1.18,0,0,0,.47.85,17.27,17.27,0,0,0,3.83,2.06,7.17,7.17,0,0,1,2.13,1.58.89.89,0,0,1,.2.65,1.85,1.85,0,0,1-.27.63c-.17-.16-.35-.28-.5-.45a4.34,4.34,0,0,1-.35-.49l-.19.14a2.41,2.41,0,0,1,.08.25,7.43,7.43,0,0,0,.13.93c-.23,0-.48.08-.71.08h-.21c-1.65-.4-3.3-.84-5-1.25a1.31,1.31,0,0,0-.28,0h-.67a1.85,1.85,0,0,0,1.36.94,6.5,6.5,0,0,1,3.32,1.82c.17.15.11.56.16.86-.23,0-.48.12-.7.12a.74.74,0,0,1-.21,0,8.28,8.28,0,0,0-3.11-1,3.06,3.06,0,0,0-.74.09,1,1,0,0,1-.24,0,1,1,0,0,1-.94-.75.74.74,0,0,0-.78-.57h-1.92a.94.94,0,0,1-1-.88h0a1.26,1.26,0,0,0-.84-1c-.86-.42-1.66-.92-2.55-1.28a3.57,3.57,0,0,0-1.33-.29,2.53,2.53,0,0,0-1.5.5,3.85,3.85,0,0,1-2.38.73,16.83,16.83,0,0,1-1.88-.17.66.66,0,0,1-.47-.47.86.86,0,0,1,.32-.67,13.32,13.32,0,0,1,1.91-.9,1.26,1.26,0,0,1,.33-.05,1.17,1.17,0,0,1,.52.12,1.72,1.72,0,0,0,.8.2,2.66,2.66,0,0,0,.83-.16,15,15,0,0,1,2.19-.46,7.77,7.77,0,0,0,1-.31v-.28a2,2,0,0,1-.54-.36c-.18-.24-.43-.57-.38-.81a1,1,0,0,1,.61-.7c1-.11,1.5-1,2.27-1.5a.79.79,0,0,0,0-.67,4.32,4.32,0,0,0-2-1.48,30.5,30.5,0,0,1-3.32-1.58c-.56-.28-1.14-.5-1.72-.74l-1.49-.62-.49-.24-1.7-.68c-.07.09-.21.41-.44.52a7.94,7.94,0,0,1-1.26.38,3.3,3.3,0,0,0-1.22.43,3.18,3.18,0,0,1-2.12.83h-.62a8.33,8.33,0,0,0-.86.08c-.27,0-.53.08-.8.09l-3.43.09c-.83,0-1.65,0-2.47.06-.38,0-.76.12-1.15.13h-.12a1.09,1.09,0,0,1-.61-.13.67.67,0,0,1-.12-.61,1.14,1.14,0,0,1,.71-.4h.18c.31,0,.62.08.93.08h.08a5.74,5.74,0,0,0,1-.21v-.2a1,1,0,0,0-.33-.15h0c-.66,0-1.33.07-2,.07h-.34a1,1,0,0,1-.73-.34,1,1,0,0,1,.07-.76c.37-.64.8-1.23,1.21-1.84a.4.4,0,0,1,.22-.15c.68-.19,1.36-.38,2-.59.21-.06.39-.23.6-.29a2.8,2.8,0,0,1,.74-.2.15.15,0,0,1,.13,0,1.77,1.77,0,0,1,.22,1V267a.45.45,0,0,0,.14.31c.57.23,1.12.46,1,1.25a4.28,4.28,0,0,0,1-.1,1,1,0,0,0,0-.74c-.56-.68-.56-.81.06-1.39a2.57,2.57,0,0,0,.56-.85,2.07,2.07,0,0,1,1.87-1.34,2.33,2.33,0,0,1,.59.08,2,2,0,0,0,.58.09,1.23,1.23,0,0,0,.91-.41.94.94,0,0,1,.65-.21m0-1.45a2.39,2.39,0,0,0-1.64.61h-.13a3.41,3.41,0,0,0-4.1,2.06l-.12.24A2.23,2.23,0,0,0,348,264a1.56,1.56,0,0,0-1.15-.48,3.12,3.12,0,0,0-1,.2h-.14a2.84,2.84,0,0,0-.61.29h-.05l-1.13.33-.81.23a1.83,1.83,0,0,0-1,.71l-.25.35c-.34.51-.7,1-1,1.58a2.31,2.31,0,0,0,0,2.33,1.7,1.7,0,0,0,.33.38,2.8,2.8,0,0,0,0,.41,2,2,0,0,0,.74,1.36,2.34,2.34,0,0,0,1.42.41h.18l.74-.09h3.1l3.11-.08a4.5,4.5,0,0,0,.63-.07h.59a2.67,2.67,0,0,1,.4,0h.57a4.58,4.58,0,0,0,3-1.12,2.1,2.1,0,0,0,.33-.09l.45-.11a1.72,1.72,0,0,0,.36-.09,5.3,5.3,0,0,0,1.1-.38l.2-.11.8.32.16.08.33.16.73.3.76.31.42.17c.43.19.84.35,1.24.55s.7.35,1,.53a17.08,17.08,0,0,0,2.42,1.12,1.81,1.81,0,0,1,.61.33c-.34.32-.52.46-.7.48a2.39,2.39,0,0,0-1.84,1.86,1.8,1.8,0,0,0,0,.73,7.52,7.52,0,0,0-1.4.34,1.3,1.3,0,0,1-.34.08.25.25,0,0,1-.17,0A2.71,2.71,0,0,0,361,277a2.24,2.24,0,0,0-.81.15,13.93,13.93,0,0,0-2.13,1,2.31,2.31,0,0,0-1,2.06,2.12,2.12,0,0,0,1.73,1.81h.31a14.24,14.24,0,0,0,1.73.14,5.21,5.21,0,0,0,3.2-1,1.09,1.09,0,0,1,.68-.23,2.28,2.28,0,0,1,.81.19c.53.21,1,.49,1.59.78l.84.46h.09a2.37,2.37,0,0,0,2.33,2.06H372a2.35,2.35,0,0,0,2.09,1.3,2.24,2.24,0,0,0,.57-.08H375a4.84,4.84,0,0,1,1.77.57l.82.36a2.06,2.06,0,0,0,.73.14,3.28,3.28,0,0,0,.69-.1h.15a1.47,1.47,0,0,0,1.26-1.63v-.18a3.05,3.05,0,0,0-.05-.52,2.76,2.76,0,0,0,.57-.06h.19a1.31,1.31,0,0,0,.85-.38h.18a1.45,1.45,0,0,0,1-.79.31.31,0,0,1,.05-.1,2.48,2.48,0,0,0,.35-1,2.34,2.34,0,0,0-.72-1.86c-.16-.13-.31-.27-.46-.41a1.74,1.74,0,0,0,.67.13,1.55,1.55,0,0,0,.63-.13,2,2,0,0,0,1-1,3.34,3.34,0,0,0,3-2.11,2.44,2.44,0,0,0,0-2.26,2.13,2.13,0,0,0-1.56-.93H386c-.24,0-.48-.09-.72-.12a2.36,2.36,0,0,1-.52-.09,2.13,2.13,0,0,1-.31-.47,3.93,3.93,0,0,0-1.17-.24,1.49,1.49,0,0,1-1.1-.38,4.18,4.18,0,0,0-1.83-.86c-.33-.08-.67-.14-1-.19a3,3,0,0,1-.88-.2,7,7,0,0,0-1.24-.51,1.91,1.91,0,0,0,.58-.43,1.72,1.72,0,0,0,.49-1.22,2,2,0,0,0-1.42-1.83,1.61,1.61,0,0,0-.34-1.36c-.29-.39-.83-1-6.46-1a5.5,5.5,0,0,0-2.24.23,3.85,3.85,0,0,1-1.11.28,2.24,2.24,0,0,0-.16-.63,1.65,1.65,0,0,0-.87-.89,1.22,1.22,0,0,1-.29-.17,3.07,3.07,0,0,0-1.67-.59,2.55,2.55,0,0,0-1.26.36h-.08a2.64,2.64,0,0,0-.46.13l-.61.18a5.62,5.62,0,0,0-2.52,1.23,2.39,2.39,0,0,0-1.41-.43,2.76,2.76,0,0,0-.75.1.24.24,0,0,0,0-.12.2.2,0,0,0-.08-.19,2,2,0,0,0-2.18-1.69Zm24.85,15.34c-.27-.13-.53-.29-.8-.45l.16.06.57.19a1.18,1.18,0,0,0,.07.2Z" transform="translate(-232.55 -249.99)"/><path class="cls-4" d="M453.5,307.9a2.21,2.21,0,0,1-.51,0,5.36,5.36,0,0,1-1.1-.22,8.46,8.46,0,0,0-1.79-.29,3.49,3.49,0,0,1-2.51-1,2.93,2.93,0,0,1-.75-2.16v-.55a10.14,10.14,0,0,1,0-1.35,1.62,1.62,0,0,1,.64-1,.64.64,0,0,0,.27-.42.6.6,0,0,0-.25-.35h0a.55.55,0,0,1-.27-.23A3,3,0,0,0,445.7,299a1.6,1.6,0,0,1-.77-1.24,1.65,1.65,0,0,0-1-1.43l-.17-.11c-.78-.5-.81-2.06-.81-2.4a2.29,2.29,0,0,1,.65-1.88,1.76,1.76,0,0,1,.9-.24,1.12,1.12,0,0,1,.62.15,1.78,1.78,0,0,1,.78,1.35v.57l.5.11a1.7,1.7,0,0,1,1.39,1.52,2.65,2.65,0,0,0,1,1.8,14.82,14.82,0,0,1,3.86,5.62,1.3,1.3,0,0,0,.32.41,3.17,3.17,0,0,1,.4.49,10.09,10.09,0,0,1,.79,1.4,3.33,3.33,0,0,1,.3,1.11,1.69,1.69,0,0,1-.25,1.35A1.07,1.07,0,0,1,453.5,307.9Z" transform="translate(-232.55 -249.99)"/><path class="cls-5" d="M444.53,292.26a.67.67,0,0,1,.34.09,1.24,1.24,0,0,1,.5.87c0,1,0,1,1,1.26a1.08,1.08,0,0,1,.94,1,3.36,3.36,0,0,0,1.23,2.19,14.24,14.24,0,0,1,3.71,5.39c.15.38.55.66.78,1a12.23,12.23,0,0,1,.76,1.32,3,3,0,0,1,.24.93c0,.29.07.71-.09.86a.59.59,0,0,1-.42.13h-.42a20.62,20.62,0,0,0-3-.53,2.55,2.55,0,0,1-2.71-2.39v-.24q0-.9,0-1.8a1.09,1.09,0,0,1,.42-.64,1,1,0,0,0,.28-1.43.86.86,0,0,0-.28-.29s-.1,0-.12-.06a3.61,3.61,0,0,0-1.8-1.45,1,1,0,0,1-.4-.75,2.27,2.27,0,0,0-1.32-1.9l-.12-.06c-.63-.41-.76-2.9-.14-3.3a1.15,1.15,0,0,1,.6-.16m0-1.17h0a2.28,2.28,0,0,0-1.19.34,2.76,2.76,0,0,0-.94,2.37c0,.52.06,2.24,1.06,2.9l.22.12a1.1,1.1,0,0,1,.7,1,2.16,2.16,0,0,0,1.13,1.72,2.43,2.43,0,0,1,1.25,1,1.22,1.22,0,0,0,.29.31,2.17,2.17,0,0,0-.76,1.36,11.21,11.21,0,0,0,0,1.42v.46a3.57,3.57,0,0,0,.92,2.56,4,4,0,0,0,2.91,1.27,8,8,0,0,1,1.68.27c.36.08.74.17,1.13.23a3,3,0,0,0,.6,0,1.61,1.61,0,0,0,1.21-.44,2.17,2.17,0,0,0,.43-1.82,3.93,3.93,0,0,0-.36-1.31,11.24,11.24,0,0,0-.83-1.48,4.06,4.06,0,0,0-.46-.55,1.64,1.64,0,0,1-.21-.25,15.29,15.29,0,0,0-4-5.81,2.19,2.19,0,0,1-.86-1.43,2.24,2.24,0,0,0-1.83-2.06h-.09v-.24a2.37,2.37,0,0,0-1.07-1.83,1.67,1.67,0,0,0-.9-.24Z" transform="translate(-232.55 -249.99)"/><path class="cls-4" d="M355.92,387.93h-.63a.66.66,0,0,1-.53-.28.75.75,0,0,1-.13-.61v-.19a1.55,1.55,0,0,1,.33-.9,2,2,0,0,0-.5-.23,2.68,2.68,0,0,1-1.79-1.31.61.61,0,0,0-.34-.25h0a6,6,0,0,1-3.3-1,2.89,2.89,0,0,0-1.31-.39,2.79,2.79,0,0,1-.73-.15,1.84,1.84,0,0,1-1.1-.59c-.1-.15-.15-.15-.17-.15a.86.86,0,0,0-.38.16c-.44.25-.87.53-1.29.81l-1,.67a1.57,1.57,0,0,1-.71.19,1,1,0,0,1-.61-.19,1.33,1.33,0,0,1-.48-1.46,3.18,3.18,0,0,1,1-1.42,8,8,0,0,1,4.15-1.37h.14l.57.13,1.24.26a7.38,7.38,0,0,1,.84.12l.67.09a3.16,3.16,0,0,1,.68.14c1.57.61,3.11,1.21,4.63,1.84a2.22,2.22,0,0,1,1,.94c.18.32.42.46,1,.61a3.66,3.66,0,0,1,1,.42,3.23,3.23,0,0,0,.49.25l.23.08a13.55,13.55,0,0,0,2.07.68h.14a1.32,1.32,0,0,1,1.31,1.35,1,1,0,0,1,0,.17,1.24,1.24,0,0,1-1.28,1.21h-1.36c-1,0-2,0-2.94.07a1.2,1.2,0,0,1-.6.31A1.43,1.43,0,0,1,355.92,387.93Z" transform="translate(-232.55 -249.99)"/><path class="cls-5" d="M346.4,379.9c.61.14,1.21.28,1.83.39.47.1.94.13,1.4.2a3.82,3.82,0,0,1,.66.12c1.54.6,3.09,1.2,4.62,1.83a1.5,1.5,0,0,1,.69.63,2,2,0,0,0,1.49,1,8.11,8.11,0,0,1,1.37.64,17,17,0,0,0,2.41.79c.49.1,1,.12.88.76s-.33.55-.69.55h-1.27c-1,0-2,0-3.08.08-.2,0-.38.28-.59.32h-.83c.06-.27,0-.61.19-.77.47-.51.49-.69-.07-1a2.79,2.79,0,0,0-.8-.38,2.06,2.06,0,0,1-1.34-1,1.22,1.22,0,0,0-.92-.6h0a5.34,5.34,0,0,1-2.91-.9,6.36,6.36,0,0,0-2.25-.63,1.23,1.23,0,0,1-.71-.35.91.91,0,0,0-.73-.41,1.54,1.54,0,0,0-.72.24c-.8.46-1.57,1-2.36,1.49a.73.73,0,0,1-.35.09.29.29,0,0,1-.2-.05c-.15-.11-.31-.43-.26-.56a2.84,2.84,0,0,1,.75-1.11,7.22,7.22,0,0,1,3.79-1.32m0-1.46h0a8.59,8.59,0,0,0-4.51,1.48,3.61,3.61,0,0,0-1.24,1.64v.07a2,2,0,0,0,.69,2.38,1.71,1.71,0,0,0,1,.33,2.1,2.1,0,0,0,1.07-.3c.37-.22.72-.45,1.07-.68s.77-.51,1.15-.73a2.7,2.7,0,0,0,1.25.6c.26.06.53.11.79.15a2.62,2.62,0,0,1,1,.3,6.68,6.68,0,0,0,3.48,1.12,3.31,3.31,0,0,0,1.87,1.46,2,2,0,0,0-.07.43v.11a1.46,1.46,0,0,0,1.05,1.75l.27,0h.62a2,2,0,0,0,.49,0,1.81,1.81,0,0,0,.71-.31c.89,0,1.81-.06,2.7-.06h1.25a2,2,0,0,0,2.1-1.82v0a2,2,0,0,0-1.73-2.31h-.28a13,13,0,0,1-2-.65l-.24-.1a1.69,1.69,0,0,1-.38-.19,4.43,4.43,0,0,0-1.16-.5c-.51-.11-.54-.18-.58-.25a2.9,2.9,0,0,0-1.4-1.26c-1.51-.63-3-1.23-4.56-1.81h-.09a3,3,0,0,0-.84-.18h-.11l-.55-.07-.79-.11-1.24-.27-.56-.12a1.4,1.4,0,0,0-.29,0Z" transform="translate(-232.55 -249.99)"/><path class="cls-4" d="M440.59,305.32a2.46,2.46,0,0,1-1.47-.36,2.11,2.11,0,0,1-.56-1.78,2.25,2.25,0,0,0-.39-1.57,9.31,9.31,0,0,1-.69-1.42,1,1,0,0,1,0-.76.69.69,0,0,1,.38-.42,1.16,1.16,0,0,1,.49-.1,1.14,1.14,0,0,1,.41.07l.32.12a.94.94,0,0,1,1-1,2,2,0,0,1,.49.06,3.14,3.14,0,0,1,.61.21l.38.11a1.87,1.87,0,0,1,1.41,1.47l.05.23a2.24,2.24,0,0,0,.13.57l.08.32a3.34,3.34,0,0,0,.58,1.42,1.9,1.9,0,0,1-.14,2,2.28,2.28,0,0,1-1.35.66h-.14a5.7,5.7,0,0,1-1.3.15Z" transform="translate(-232.55 -249.99)"/><path class="cls-5" d="M440.08,298.66a1.15,1.15,0,0,1,.37,0c.34.07.65.26,1,.35a1.27,1.27,0,0,1,1,1c.07.27.12.54.19.81a4.72,4.72,0,0,0,.77,2,1.44,1.44,0,0,1-.14,1.26c-.23.3-.76.38-1.18.48a5.2,5.2,0,0,1-1.17.14h-.14a2.3,2.3,0,0,1-1.31-.24,1.55,1.55,0,0,1-.36-1.24,2.83,2.83,0,0,0-.47-2,8.89,8.89,0,0,1-.67-1.39c0-.09,0-.34.1-.36a.66.66,0,0,1,.28,0h.22c.41.15.79.33,1.19.5l.1-.21c-.08-.1-.21-.22-.21-.33a1.94,1.94,0,0,1,.1-.74.52.52,0,0,1,.36-.1m0-1.16a1.59,1.59,0,0,0-1.12.4,1.43,1.43,0,0,0-.33.47h-.31a1.67,1.67,0,0,0-.77.12,1.22,1.22,0,0,0-.71.73,1.58,1.58,0,0,0,0,1.17,10.56,10.56,0,0,0,.75,1.55,1.71,1.71,0,0,1,.31,1.18,2.27,2.27,0,0,0,2.58,2.79h.35a6.18,6.18,0,0,0,1.42-.16h.14a2.75,2.75,0,0,0,1.67-.87,2.45,2.45,0,0,0,.13-2.72,3,3,0,0,1-.46-1.2l-.09-.33-.12-.51-.06-.26a2.44,2.44,0,0,0-1.82-1.91l-.3-.11a4.26,4.26,0,0,0-.71-.25,3.08,3.08,0,0,0-.61-.06Z" transform="translate(-232.55 -249.99)"/><path class="cls-4" d="M335.68,411.09a2.19,2.19,0,0,1-1.56-.71,6,6,0,0,0-1.18-.94,4,4,0,0,0-1.6-.56,6.47,6.47,0,0,1-2.27-.67c-1.68-.76-1.82-2.59-1.93-3.93A10.33,10.33,0,0,0,327,403a3.33,3.33,0,0,1,.13-1.95l-1.36-.35c-.77-.21-1.54-.41-2.33-.6a5.93,5.93,0,0,1-4.19-3.48c-.41-.88-.06-2.07.3-3.23a2.84,2.84,0,0,1,.16-.56,4.21,4.21,0,0,0-.72.18,4.88,4.88,0,0,1-1.46.22,4.33,4.33,0,0,1-2.63-.9l-.27-.21A10.94,10.94,0,0,0,312.9,391c-1.94-.94-4.09-1.92-6.75-3.1a7.27,7.27,0,0,1-4.52-6,12.23,12.23,0,0,0-4.91-8.36,3.09,3.09,0,0,1-1.18-2.06,2.61,2.61,0,0,0-.64-1.48,13.09,13.09,0,0,1,1,3.8,3.66,3.66,0,0,0,.47,1.24,5.64,5.64,0,0,0,.46.63,7.17,7.17,0,0,1,.57.76,2,2,0,0,1,.26,1.15v.2a1.15,1.15,0,0,1-.27.85,1.08,1.08,0,0,1-.77.41h-.14a3.45,3.45,0,0,1-.55.07,1.3,1.3,0,0,1-.92-.34,9.16,9.16,0,0,1-3.14-4.95,3.31,3.31,0,0,0-1.79-2.67,2.57,2.57,0,0,1-1.46-2.79,2.91,2.91,0,0,0-.87-2.6,6.24,6.24,0,0,1-1.62-3.1,22.51,22.51,0,0,1-.37-2.84,1.64,1.64,0,0,0-.66-1.35,7.7,7.7,0,0,0-1.74-.94A3.64,3.64,0,0,1,281,354.5L281,354a19,19,0,0,0-.7-3.59,22.32,22.32,0,0,1,.44-16.26,3.71,3.71,0,0,0,.21-.81,12.79,12.79,0,0,0-1.47-8.25c-1.09-2.06,3.24-19.59,7.27-25.12s14.69-12.13,16.72-12.68l2.91-.78,4.78-1.3a2,2,0,0,0,.25-.14,12.91,12.91,0,0,1,6.39-1.79,10,10,0,0,0,3.32-.75,9,9,0,0,1,3.57-.82,7.6,7.6,0,0,1,3,.65.71.71,0,0,0,.32.07,1.37,1.37,0,0,0,1-.65,10.19,10.19,0,0,1,1.18-1.36c.2-.21.4-.41.59-.62l.27-.3a2.81,2.81,0,0,0,.52-.67,3.53,3.53,0,0,1,3.22-2.34,3.38,3.38,0,0,1,2.38,1,6.24,6.24,0,0,1,2-.93h.34a2.39,2.39,0,0,1,1.89,1.12,1.92,1.92,0,0,1,.26,1.26,10.15,10.15,0,0,0,1-.29.08.08,0,0,0,0-.07,2.14,2.14,0,0,1,1.82-2.33,2.48,2.48,0,0,0,.62-.24,3.9,3.9,0,0,1,1.91-.54,3.65,3.65,0,0,1,2.93,1.57.93.93,0,0,0,.18.16,4.18,4.18,0,0,1,.53.5l.08.11a2.34,2.34,0,0,1,.72,1.7,2.77,2.77,0,0,1-1,1.63,3,3,0,0,1-.7.47l-.18.11a4,4,0,0,1-2.73,1.15,1.87,1.87,0,0,0-.75.26,2.66,2.66,0,0,1-1.39.42,2.46,2.46,0,0,1-1.16-.29,1.63,1.63,0,0,0-.46-.18,2.09,2.09,0,0,0-.31.29,5.74,5.74,0,0,0-.79,1,5.6,5.6,0,0,1-.54.74,2,2,0,0,1-.17,1.44,2.09,2.09,0,0,1-.63.69,13.07,13.07,0,0,1-5,2.47l-.65.16a20.22,20.22,0,0,0-2,.61,2.36,2.36,0,0,0-1.59,1.53,7.78,7.78,0,0,1-1.17,2.06,5,5,0,0,0-1,4.29,5.2,5.2,0,0,0,2.84,3.48,15.54,15.54,0,0,0,4.34,1.09,17.83,17.83,0,0,0,2.43.2,7.88,7.88,0,0,0,1.45-.12,6.61,6.61,0,0,1,8,6.27,6.54,6.54,0,0,0,1.19,3.81.78.78,0,0,0,.63.37.85.85,0,0,0,.64-.38,2.18,2.18,0,0,0,.36-.77,6.88,6.88,0,0,0,0-3.19,4.24,4.24,0,0,1,2.16-5,8.63,8.63,0,0,0,1.94-1.47,2.1,2.1,0,0,0,.68-1.55,2,2,0,0,0-1.12-1.4,3,3,0,0,1-.38-5.1.6.6,0,0,0,.27-.59c-.13-1-.31-2.15-.57-3.5a2.53,2.53,0,0,1,.47-2.06,2.12,2.12,0,0,1,1.69-.81h.36l1.17.21c.49.1,1,.19,1.47.25a5.55,5.55,0,0,0,.82.06,2.18,2.18,0,0,0,.51,0,8,8,0,0,1,1.62-.16,7.73,7.73,0,0,1,5,1.86,7.13,7.13,0,0,0,1.46.91,3.88,3.88,0,0,1,2.34,3.69c0,.48.19.6.27.66a4.31,4.31,0,0,0,1.15.54,4.73,4.73,0,0,0,1.34.2,2.85,2.85,0,0,0,2.53-1.65,2.92,2.92,0,0,1,2.45-1.35,2.62,2.62,0,0,1,.73.1,2.89,2.89,0,0,1,2.19,2.63,5.5,5.5,0,0,1,2.46,3.82c.22,1.21.89,1.38,1.37,1.42h.33a6,6,0,0,0,1.92-.32,6.9,6.9,0,0,1,2.11-.34,6.48,6.48,0,0,1,6.43,5.77,12.86,12.86,0,0,1,.07,2.06v1.38a5.11,5.11,0,0,1-1.23,3.83,4.51,4.51,0,0,1-3.35,1.51h-.68a3.36,3.36,0,0,0-2.07.76,7.36,7.36,0,0,1-4.44,1.46,8.51,8.51,0,0,1-2.07-.26,9.79,9.79,0,0,0-2.41-.33,6.92,6.92,0,0,0-1.81.24c-.43.12-.84.26-1.26.4h.79a2.75,2.75,0,0,1,1.93,1.12,2.33,2.33,0,0,1,.24,2.24,2.56,2.56,0,0,1-1.17,1.26,4.32,4.32,0,0,1,.73,1.31,2.37,2.37,0,0,0,1.88,1.65,6.92,6.92,0,0,0,1.36.1h.88a2.1,2.1,0,0,1,.26,4.2h-.36a13.53,13.53,0,0,0-1.68.21c-1.44.32-2.46.74-3.07,1.8a2.39,2.39,0,0,1-2.09,1.3h-.45a2.32,2.32,0,0,1-1.92-1.95,2.43,2.43,0,0,1,0-.93c-.43.12-.85.21-1.21.29a6.71,6.71,0,0,1-.89.11,6.63,6.63,0,0,0-.76.11,6.15,6.15,0,0,0-4.39,3.22,13,13,0,0,1-4.37,4.79,4.32,4.32,0,0,0-1.85,2.32,3.18,3.18,0,0,1-2.14,2.24c-.62.17-1,.52-1.31,1.72a10.06,10.06,0,0,0-.17,1c-.05.37-.1.76-.18,1.13A16.31,16.31,0,0,1,349,357.5a3.42,3.42,0,0,0-2,3.65,14.45,14.45,0,0,0,.61,2.68,22.36,22.36,0,0,1,1.45,7.68,2.38,2.38,0,0,1-1.31,2.21,2.15,2.15,0,0,1-.94.21,2.43,2.43,0,0,1-1.71-.77,11.21,11.21,0,0,1-3.3-6.29,9.92,9.92,0,0,0-.69-2.39c-.23-.53-.52-.59-.75-.59a1.69,1.69,0,0,0-.55.12,3.6,3.6,0,0,1-1.37.27,3.86,3.86,0,0,1-2.21-.77,2.94,2.94,0,0,0-.87-.47,3.41,3.41,0,0,0-1-.15,3.5,3.5,0,0,0-2,.68,10.62,10.62,0,0,1-6,1.87h-1.22c-4.13,0-6.76,2.16-7.82,6.42a4.26,4.26,0,0,1-.86,1.79,4.07,4.07,0,0,0-.88,2.58,10.58,10.58,0,0,0,2.83,7.6,4.37,4.37,0,0,0,2.71,1.79c1.72.23,1.48,2.21,1.39,2.95h0a2.06,2.06,0,0,0,1.41-2.06,3.77,3.77,0,0,1,3.27-3.8,26.35,26.35,0,0,1,3.76-.3h.19a2,2,0,0,1,1.83,1.29,2.39,2.39,0,0,1-.32,1.91,6.68,6.68,0,0,1-.6.8,3.73,3.73,0,0,0-.36.43,9.9,9.9,0,0,0-1.44,6.31,2,2,0,0,0,.11.64h0a1,1,0,0,0,.38.11,13.81,13.81,0,0,0,2.48.25h1.31c1.89,0,5.08.89,5.18,6.85a3.56,3.56,0,0,1-2,3.29,3.53,3.53,0,0,1,.65,0,5.14,5.14,0,0,1,5,4.23,1.14,1.14,0,0,1-.55,1.27,6.22,6.22,0,0,1-1.25.59,1.13,1.13,0,0,1-.36.06h-.74a1.16,1.16,0,0,1-1.14-1.16,1.17,1.17,0,0,1,.22-.68,4.16,4.16,0,0,0-1.27-.48h-.46a1.63,1.63,0,0,0,0,.54,2,2,0,0,1-2.06,2.43Zm-44.39-46.65a4.39,4.39,0,0,0,.62,1.42C291.71,365.37,291.5,364.9,291.29,364.44Z" transform="translate(-232.55 -249.99)"/><path class="cls-5" d="M347,276.63a2.55,2.55,0,0,1,2,1.13c.2.26.52.43.73.69s.57.65.54.94a2,2,0,0,1-.67.91c-.28.26-.61.32-.85.56a3,3,0,0,1-2,.86,2.68,2.68,0,0,0-1.25.41,1.63,1.63,0,0,1-.82.27,1.47,1.47,0,0,1-.65-.18,2.25,2.25,0,0,0-1-.31,1.57,1.57,0,0,0-1.1.63,7.27,7.27,0,0,0-1,1.27,2.71,2.71,0,0,1-2.12,1.46,2.77,2.77,0,0,0-.63.22l.12.37c.47-.16.93-.36,1.4-.48h.13a.65.65,0,0,1,.44.15c.07.07,0,.38-.08.54a1.45,1.45,0,0,1-.4.38,12,12,0,0,1-4.53,2.2,28.25,28.25,0,0,0-2.82.81,3.49,3.49,0,0,0-2,2.17,7.22,7.22,0,0,1-1,1.75,6.22,6.22,0,0,0,.74,8.59,5.9,5.9,0,0,0,1.5.94,16.54,16.54,0,0,0,4.68,1.2,18.73,18.73,0,0,0,2.59.22,9.32,9.32,0,0,0,1.66-.15,5.93,5.93,0,0,1,1.19-.12,5.45,5.45,0,0,1,5.49,5.31,7.91,7.91,0,0,0,1.42,4.47,1.87,1.87,0,0,0,1.52.82,2,2,0,0,0,1.53-.83,3.38,3.38,0,0,0,.56-1.18,8,8,0,0,0,0-3.76,3.14,3.14,0,0,1,1.63-3.69,10.25,10.25,0,0,0,2.17-1.66c1.59-1.66,1.29-3.6-.67-4.77a1.86,1.86,0,0,1-.26-3.19,1.72,1.72,0,0,0,.7-1.66c-.15-1.19-.35-2.38-.58-3.56a1.17,1.17,0,0,1,.78-1.44.86.86,0,0,1,.27-.05h.19c.89.14,1.77.35,2.67.46a6.63,6.63,0,0,0,1,.08,4.37,4.37,0,0,0,.72-.06,6.76,6.76,0,0,1,1.41-.15,6.55,6.55,0,0,1,4.16,1.63,8.58,8.58,0,0,0,1.69,1,2.75,2.75,0,0,1,1.69,2.64,1.84,1.84,0,0,0,.78,1.63,5.34,5.34,0,0,0,1.47.69,6,6,0,0,0,1.63.25,4,4,0,0,0,3.48-2.17,1.8,1.8,0,0,1,1.51-.83,1.56,1.56,0,0,1,1.78,1.75.82.82,0,0,0,.44.76,4.35,4.35,0,0,1,2.08,3.1A2.57,2.57,0,0,0,385.4,302h.4a7.65,7.65,0,0,0,2.27-.37,5.54,5.54,0,0,1,1.76-.28,5.33,5.33,0,0,1,5.31,4.75c.14,1.1,0,2.25.09,3.36a3.65,3.65,0,0,1-3.08,4.1l-.38,0h-.68a4.47,4.47,0,0,0-2.73,1,6.24,6.24,0,0,1-3.8,1.28,7.27,7.27,0,0,1-1.8-.22,11,11,0,0,0-2.68-.36,7.51,7.51,0,0,0-2.11.28c-1.34.37-2.61.94-3.94,1.36-2.66.82-4.4,3-6.45,4.7a1.29,1.29,0,0,0-.33.52,2.71,2.71,0,0,0,0,.57l.22.15c.54-.5,1.09-1,1.65-1.5a15.2,15.2,0,0,1,2.13-1.71,11.42,11.42,0,0,1,5.73-1.4h.81a1.59,1.59,0,0,1,1,.63c.56.81,0,1.8-1.07,2-.42.07-.83.18-1.24.27v.26a6.18,6.18,0,0,0,.53.36,2.87,2.87,0,0,1,1.45,1.61,3.49,3.49,0,0,0,2.73,2.39,7.47,7.47,0,0,0,1.56.13h.95c.67,0,1,.27,1.07.88s-.31.93-1,1a19.81,19.81,0,0,0-2.17.28,5.3,5.3,0,0,0-3.81,2.33,1.24,1.24,0,0,1-1.1.73h-.26a1.18,1.18,0,0,1-1-1,1.28,1.28,0,0,1,.75-1.49c.61-.3,1.25-.56,1.87-.88a13.83,13.83,0,0,0,1.17-.75,1.65,1.65,0,0,0-1.1-.44,1.92,1.92,0,0,0-.91.23c-.89.42-1.74.9-2.63,1.28a8.35,8.35,0,0,1-1.71.48c-.55.11-1.13.1-1.68.23a7.29,7.29,0,0,0-5.13,3.81,11.73,11.73,0,0,1-4,4.35,5.43,5.43,0,0,0-2.3,2.95,2,2,0,0,1-1.33,1.42,3,3,0,0,0-2.12,2.58c-.15.71-.19,1.44-.34,2.14a15,15,0,0,1-7.57,10.39,4.61,4.61,0,0,0-2.6,4.82,14.65,14.65,0,0,0,.67,2.93,20.89,20.89,0,0,1,1.37,7.22c0,.52-.09,1-.59,1.23a1.31,1.31,0,0,1-.48.12,1.42,1.42,0,0,1-.94-.47,9.84,9.84,0,0,1-2.95-5.64,11.35,11.35,0,0,0-.78-2.67,1.93,1.93,0,0,0-1.78-1.27,2.66,2.66,0,0,0-1,.2,2.4,2.4,0,0,1-2.51-.37,4.29,4.29,0,0,0-2.54-.83,4.66,4.66,0,0,0-2.64.87,9.49,9.49,0,0,1-5.42,1.68H325c-4.62,0-7.74,2.55-8.91,7.3a3.3,3.3,0,0,1-.62,1.31,5.18,5.18,0,0,0-1.15,3.3,11.68,11.68,0,0,0,3.11,8.43,5.54,5.54,0,0,0,3.4,2.19c1.2.16-.34,3.09.81,3.09h0a3.16,3.16,0,0,0,3.23-3.11v-.16a2.63,2.63,0,0,1,2.32-2.76,28.61,28.61,0,0,1,3.81-.29h0a.89.89,0,0,1,.71.49,1.28,1.28,0,0,1-.2.93c-.27.43-.66.78-.94,1.2a11,11,0,0,0-1.63,7c.07,1.13.34,1.63,1.41,1.83a15,15,0,0,0,2.68.27h1.31c3,0,4,2.43,4,5.7,0,2.6-3,2.46-4.26,4-.73.9-.77,1.5,0,1.5a2.57,2.57,0,0,0,.72-.11,8.6,8.6,0,0,0,1.45-.58,4.79,4.79,0,0,1,1.86-.41,4,4,0,0,1,3.95,3.33,5.35,5.35,0,0,1-1.06.49h-.76l.1-.17a1.09,1.09,0,0,0-.39-1.43,4.81,4.81,0,0,0-1.74-.71h-.41c-1,0-1.48.69-1.34,1.87a1,1,0,0,1-.53,1.1,1,1,0,0,1-.38.1,1.16,1.16,0,0,1-.79-.41,6.84,6.84,0,0,0-1.44-1.13c-2.2-1.12-1.68-.24-3.93-1.26-1.46-.65-1.09-2.76-1.42-4.36-.51-2.51,2.47-2.06,0-2.66-1.48-.36-3-.77-4.43-1.13a4.84,4.84,0,0,1-3.43-2.84c-.47-1,1.51-4.53.39-4.53h0a6.84,6.84,0,0,0-2,.29,3.55,3.55,0,0,1-1.12.18,3.23,3.23,0,0,1-2-.69,13.7,13.7,0,0,0-2.18-1.44c-2.23-1.09-4.51-2.12-6.78-3.1a6.17,6.17,0,0,1-3.86-5.05,13.4,13.4,0,0,0-5.15-9.14,1.92,1.92,0,0,1-.73-1.18,4.07,4.07,0,0,0-1.22-2.52,15.26,15.26,0,0,1-3.65-6.81,2.42,2.42,0,0,0-.44-.93.82.82,0,0,0-.62-.33.79.79,0,0,0-.71.61,1.63,1.63,0,0,0-.13.69c.11,2.06.42,4.12,2.23,5.48a2.11,2.11,0,0,1,.36.43,12.67,12.67,0,0,1,2.32,5.93,4.68,4.68,0,0,0,.62,1.68c.29.52.75.94,1.07,1.45.11.19.05.5.08.74-.19,0-.43.1-.61.1a.27.27,0,0,1-.17-.06,7.86,7.86,0,0,1-2.78-4.3,4.44,4.44,0,0,0-2.43-3.49,1.39,1.39,0,0,1-.8-1.56A4.18,4.18,0,0,0,288.6,365a5.16,5.16,0,0,1-1.32-2.57,24.68,24.68,0,0,1-.36-2.72,2.79,2.79,0,0,0-1.13-2.22,9.09,9.09,0,0,0-2-1,2.5,2.5,0,0,1-1.61-2.14,23.69,23.69,0,0,0-.8-4.34,21.06,21.06,0,0,1,.42-15.4,5.26,5.26,0,0,0,.29-1,14.1,14.1,0,0,0-1.58-9c-.62-1.19,3-18.13,7.16-23.87,4-5.16,14.18-11.73,16-12.24,3.17-.86,5.14-1.37,7.71-2.06a2.13,2.13,0,0,0,.54-.28,11.8,11.8,0,0,1,5.86-1.62,10.55,10.55,0,0,0,3.7-.84,8.09,8.09,0,0,1,3.13-.72,6.22,6.22,0,0,1,2.54.56,2.07,2.07,0,0,0,.77.15,2.47,2.47,0,0,0,2-1.13,23.26,23.26,0,0,1,1.69-1.89,4.81,4.81,0,0,0,1-1.28,2.45,2.45,0,0,1,2.18-1.64,2.34,2.34,0,0,1,1.78.91c.2.24.35.33.5.33a1,1,0,0,0,.59-.3,5.17,5.17,0,0,1,1.82-.86h.07a1.34,1.34,0,0,1,.86.59.87.87,0,0,1-.33,1.15h0c-.17.11-.33.25-.5.37v.21a3.87,3.87,0,0,0,1,.31h.09a13.73,13.73,0,0,0,2.36-.56,1.11,1.11,0,0,0,.76-1.27,1,1,0,0,1,.91-1.1,3.16,3.16,0,0,0,.94-.36,2.72,2.72,0,0,1,1.36-.39m0-2.33h0a4.88,4.88,0,0,0-2.46.69,2,2,0,0,1-.31.12,3.45,3.45,0,0,0-2.22,1.46,3.36,3.36,0,0,0-2.43-1.21,2,2,0,0,0-.6.07,7.35,7.35,0,0,0-1.69.64,4.23,4.23,0,0,0-2.47-.77,4.63,4.63,0,0,0-4.24,3c-.1.12-.21.25-.32.36l-.29.32c-.17.19-.36.39-.54.57a12.73,12.73,0,0,0-1.32,1.52.49.49,0,0,1-.12.13,8.57,8.57,0,0,0-3.31-.69,9.91,9.91,0,0,0-4,.91,8.78,8.78,0,0,1-2.94.66,14,14,0,0,0-6.95,1.82h-.08c-1.61.46-3,.83-4.63,1.26l-2.93.8c-2.49.67-13.09,7.62-17.26,13h0c-2.66,3.65-4.75,10.6-5.75,14.43-2.68,10.08-1.88,11.57-1.64,12.06a11.76,11.76,0,0,1,1.35,7.52,3.41,3.41,0,0,1-.14.55,23.51,23.51,0,0,0-.45,17.09,17.5,17.5,0,0,1,.65,3.36l.07.51a4.79,4.79,0,0,0,3,4,7.32,7.32,0,0,1,1.51.81c.06,0,.16.11.18.47a25.12,25.12,0,0,0,.39,3,7.37,7.37,0,0,0,1.92,3.72,1.77,1.77,0,0,1,.57,1.61,3.72,3.72,0,0,0,2.09,4c.55.27.93.67,1.17,1.86a10.36,10.36,0,0,0,3.48,5.6,2.51,2.51,0,0,0,1.67.61,3.31,3.31,0,0,0,.77-.09h.07a2.3,2.3,0,0,0,2-2.47v-.27a11.49,11.49,0,0,1,1.69,4.65,8.5,8.5,0,0,0,5.2,6.86c2.7,1.18,4.78,2.13,6.71,3.09a9.4,9.4,0,0,1,1.54,1l.28.2a5.39,5.39,0,0,0,3.29,1.13h.57a4.29,4.29,0,0,0,.12,2.74,7.14,7.14,0,0,0,5,4.13c.79.18,1.56.39,2.34.59l.27.08a5.47,5.47,0,0,0,.1,1.34,8.06,8.06,0,0,1,.13,1.1c.11,1.44.3,3.88,2.59,4.91a7.47,7.47,0,0,0,2.61.76,3.1,3.1,0,0,1,1.21.44,5.43,5.43,0,0,1,.9.75,3.31,3.31,0,0,0,2.35,1A3.14,3.14,0,0,0,337,412a3.06,3.06,0,0,0,1.53-1.44,2.3,2.3,0,0,0,1.88,1h.76a1.94,1.94,0,0,0,.71-.13,7.18,7.18,0,0,0,1.46-.68,2.34,2.34,0,0,0,1.1-2.53,6.44,6.44,0,0,0-4.25-4.86,4.73,4.73,0,0,0,.56-2.39c-.12-7.22-4.45-8-6.31-8h-1.31a12.71,12.71,0,0,1-1.85-.16,8.46,8.46,0,0,1,1.26-5.33,4,4,0,0,1,.26-.32,5.73,5.73,0,0,0,.72-1,3.63,3.63,0,0,0,.45-2.89,3.17,3.17,0,0,0-2.87-2.06h-.28a28.21,28.21,0,0,0-3.9.3,4.78,4.78,0,0,0-4,3.77,2.64,2.64,0,0,0-1.69-.86,3.37,3.37,0,0,1-2-1.41,9.31,9.31,0,0,1-2.56-6.78,2.9,2.9,0,0,1,.59-1.87,5.42,5.42,0,0,0,1.1-2.35c.94-3.73,3.13-5.55,6.73-5.55h1.22a11.69,11.69,0,0,0,6.66-2.06,2.55,2.55,0,0,1,1.4-.49,2.37,2.37,0,0,1,.69.11,1.91,1.91,0,0,1,.54.3,4.92,4.92,0,0,0,2.86,1,5,5,0,0,0,1.71-.33,9.32,9.32,0,0,1,.54,2,12.22,12.22,0,0,0,3.65,6.94,3.5,3.5,0,0,0,2.47,1,3.4,3.4,0,0,0,3.34-3.64,24,24,0,0,0-1.5-8.09,12,12,0,0,1-.57-2.45c-.09-.74-.07-1.61,1.47-2.47a17.38,17.38,0,0,0,8.67-11.93c.1-.44.16-.86.21-1.23s.09-.64.15-.91c.16-.75.31-.79.49-.84a4.33,4.33,0,0,0,2.93-3,3.16,3.16,0,0,1,1.4-1.71,14.18,14.18,0,0,0,4.75-5.21,5,5,0,0,1,3.64-2.63,1.85,1.85,0,0,0,.61-.08,7.74,7.74,0,0,0,1-.13,3.46,3.46,0,0,0,2.77,2.59,3.68,3.68,0,0,0,.66.06,3.47,3.47,0,0,0,3-1.88c.36-.6,1-.93,2.34-1.23a13.26,13.26,0,0,1,1.54-.21H384a3.27,3.27,0,0,0-.11-6.53h-1.15a5.47,5.47,0,0,1-1.14-.08,1.27,1.27,0,0,1-1-.91c-.08-.21-.17-.43-.27-.63a3.45,3.45,0,0,0,.38-4.32,9.76,9.76,0,0,1,1.53.25,9.14,9.14,0,0,0,2.33.3,8.37,8.37,0,0,0,5.12-1.73,2.37,2.37,0,0,1,1.41-.54h.68A5.61,5.61,0,0,0,396,314a6.22,6.22,0,0,0,1.51-4.68V308a15,15,0,0,0-.08-2.22,7.61,7.61,0,0,0-7.55-6.77,7.89,7.89,0,0,0-2.45.39,5.29,5.29,0,0,1-1.58.27h-.43a.81.81,0,0,1-.16-.43,6.61,6.61,0,0,0-2.58-4.25,4.08,4.08,0,0,0-3-3.1,4.27,4.27,0,0,0-1-.12,4,4,0,0,0-3.39,1.87c-.74,1.14-1.26,1.14-1.6,1.14a3.52,3.52,0,0,1-1-.18,2.29,2.29,0,0,1-.59-.24,5.05,5.05,0,0,0-3-4.57,6.93,6.93,0,0,1-1.24-.77,8.85,8.85,0,0,0-5.69-2.12,9.39,9.39,0,0,0-1.83.19H360c-.23,0-.46,0-.68-.05l-1.4-.24c-.48-.09-.81-.16-1.22-.22h-.52a3.27,3.27,0,0,0-2.56,1.24,3.72,3.72,0,0,0-.72,3c.23,1.19.4,2.18.53,3.09A4.23,4.23,0,0,0,352,297.4a4.31,4.31,0,0,0,2.16,3.43c.46.27.57.51.57.54s0,.26-.36.58a8.48,8.48,0,0,1-1.71,1.28,5.48,5.48,0,0,0-2.7,6.19,5.6,5.6,0,0,1,.1,2.51,6.42,6.42,0,0,1-.62-2.69,7.78,7.78,0,0,0-7.75-7.5,8.7,8.7,0,0,0-1.61.16,6.5,6.5,0,0,1-1.24.11,17.24,17.24,0,0,1-2.27-.2,14.71,14.71,0,0,1-4-1,4.08,4.08,0,0,1-2.23-2.69,3.9,3.9,0,0,1,.82-3.31,8.89,8.89,0,0,0,1.34-2.36,1.27,1.27,0,0,1,.82-.82,18.68,18.68,0,0,1,1.94-.56l.66-.18a14,14,0,0,0,5.37-2.62h0a3.12,3.12,0,0,0,1.32-2.74,4.63,4.63,0,0,0,.31-.46,5,5,0,0,1,.4-.58,3.67,3.67,0,0,0,3.36-.31.6.6,0,0,1,.25-.1,5.12,5.12,0,0,0,3.34-1.39h0a3.46,3.46,0,0,0,.91-.61,3.84,3.84,0,0,0,1.39-2.4,3.41,3.41,0,0,0-1-2.57l-.07-.1a3.71,3.71,0,0,0-.7-.67l-.06-.05a4.72,4.72,0,0,0-3.75-1.94Z" transform="translate(-232.55 -249.99)"/><path class="cls-4" d="M412.29,292.56a3.41,3.41,0,0,1-2.76-1.48c-.15-.21-.28-.43-.42-.65a5.91,5.91,0,0,0-.54-.77,2.93,2.93,0,0,0-1-.75,5.53,5.53,0,0,0-1.76-.23h-.1a12.32,12.32,0,0,1-11.83-8.85,7.52,7.52,0,0,0-2.45-3.67,5.1,5.1,0,0,1-1.57-5.55,5.44,5.44,0,0,1,.93-1.64,2.53,2.53,0,0,1-2.47-2.59,2.57,2.57,0,0,1,.69-1.75,2.36,2.36,0,0,1,1.68-.75,6.91,6.91,0,0,1-1.66-2.2,6.81,6.81,0,0,0-2-2.38,19.71,19.71,0,0,0-6.26-2.93l-1.2-.35a1.17,1.17,0,0,1-.09-2.25l.4-.16a10.39,10.39,0,0,1,4-1,5.39,5.39,0,0,1,.8.06c21.42,2.19,36.91,8.45,48.7,19.7A8.27,8.27,0,0,1,435.9,278a1.21,1.21,0,0,1-.59,1.12,1.07,1.07,0,0,1-.53.13,1.09,1.09,0,0,1-.69-.24c-1.24-1-2.49-1.9-3.69-2.77A1.76,1.76,0,0,0,430,276a3.53,3.53,0,0,0-.33.3,3.19,3.19,0,0,1-2.34,1h-.68a1,1,0,0,0-.84.52,5.67,5.67,0,0,1-3.53,2.41,10.52,10.52,0,0,1-2,.19,10.39,10.39,0,0,1-1.37-.06h-.23a1.65,1.65,0,0,0-1.38.55,1.26,1.26,0,0,0,0,1.19A2.39,2.39,0,0,1,416,285.2l-.07,0a7.07,7.07,0,0,1-.66,5.51A3.28,3.28,0,0,1,412.29,292.56Z" transform="translate(-232.55 -249.99)"/><path class="cls-5" d="M383.82,253.71a4.6,4.6,0,0,1,.64,0c17.46,1.79,34.52,6.45,48.1,19.41a7.11,7.11,0,0,1,2.15,4.87q-1.81-1.43-3.72-2.8a1.84,1.84,0,0,0-1-.43,1.64,1.64,0,0,0-1.12.64,2.15,2.15,0,0,1-1.55.71h-.68a2.09,2.09,0,0,0-1.75,1,4.55,4.55,0,0,1-2.83,2,9.26,9.26,0,0,1-1.82.16,8.86,8.86,0,0,1-1.27-.06h-.33c-1.72,0-3.22,1.18-2.45,3.31a1.25,1.25,0,0,1-.67,1.62,1,1,0,0,1-.49.09l-.67.09a3.31,3.31,0,0,0,.12.42,5.71,5.71,0,0,1-.23,5.44,2.18,2.18,0,0,1-1.94,1.28,2.32,2.32,0,0,1-1.84-1,13.64,13.64,0,0,0-1.07-1.54,4,4,0,0,0-1.47-1,6.9,6.9,0,0,0-2.11-.3h-.1a11.23,11.23,0,0,1-10.76-8,8.59,8.59,0,0,0-2.79-4.22,3.91,3.91,0,0,1-.65-5.39,3.67,3.67,0,0,1,3.12-1.48,4.29,4.29,0,0,0,.78-.15v-.2a2.66,2.66,0,0,0-.67-.23c-.88,0-1.75-.05-2.64-.05H391a1.38,1.38,0,0,1-1.51-1.27.38.38,0,0,1,0-.1,1.32,1.32,0,0,1,1.2-1.44H391c.92.1,1.84.32,2.75.49a5.55,5.55,0,0,0,1,.21h0a2.5,2.5,0,0,0,.7-.23c-.13-.23-.21-.55-.41-.67a7.1,7.1,0,0,0-1.48-.69,5.72,5.72,0,0,1-3.46-3,7.87,7.87,0,0,0-2.35-2.8,21.31,21.31,0,0,0-6.6-3.09c-.42-.13-.83-.25-1.25-.36a11,11,0,0,1,4-1.15m0-2.33a11.31,11.31,0,0,0-4.41,1.15l-.4.16a2.35,2.35,0,0,0-1.27,3,2.29,2.29,0,0,0,1.54,1.4q.57.13,1.14.33a18.75,18.75,0,0,1,5.93,2.75,5.65,5.65,0,0,1,1.68,2,7.45,7.45,0,0,0,.69,1.15,2.8,2.8,0,0,0-.52.45,3.81,3.81,0,0,0-1,2.74,3.65,3.65,0,0,0,1.85,3.09c-.08.18-.16.37-.23.57a6.29,6.29,0,0,0,1.9,6.88,6.42,6.42,0,0,1,2.09,3.09,13.44,13.44,0,0,0,12.91,9.66h.07a4.27,4.27,0,0,1,1.42.19,1.88,1.88,0,0,1,.59.46,5.72,5.72,0,0,1,.39.57c.15.24.3.48.47.72a4.49,4.49,0,0,0,3.66,1.94,4.42,4.42,0,0,0,3.86-2.51,8.51,8.51,0,0,0,1-5.46,3.49,3.49,0,0,0,.79-.88,3.65,3.65,0,0,0,.31-3.2.24.24,0,0,1,0-.12h.5c.5,0,1,.07,1.46.07a12.94,12.94,0,0,0,2.24-.19,6.87,6.87,0,0,0,4.23-2.88h0a2.91,2.91,0,0,0,.59,0,4.22,4.22,0,0,0,2.78-1c1.07.78,2.17,1.61,3.27,2.47a2.21,2.21,0,0,0,3.17-.44A2.39,2.39,0,0,0,437,278a9.56,9.56,0,0,0-2.88-6.41c-12-11.44-27.66-17.8-49.37-20a5.58,5.58,0,0,0-.91-.07Z" transform="translate(-232.55 -249.99)"/><path class="cls-6" d="M492.7,368.39a127.32,127.32,0,0,0-32.07-77.33,122,122,0,0,0-50.2-34,109.68,109.68,0,0,0-23.11-5.7c-4.14-.6-8.38-.87-12.59-1.25a3.26,3.26,0,0,1-.53-.09h-8.48l-3.73.27a120.23,120.23,0,0,0-75.23,33.05C236.7,330.42,233.22,410.36,279,461.87c.5.57,1,1.13,1.52,1.68a121.43,121.43,0,0,0,58,35.52A116.38,116.38,0,0,0,362,502.94c52.35,3.43,101.08-27.6,121.46-77.33a126.68,126.68,0,0,0,8-29.11,132.51,132.51,0,0,0,1.41-14.89A4.25,4.25,0,0,1,493,381v-8.73C492.92,371,492.82,369.67,492.7,368.39Zm-2,8.24c-6.78,18.91-11.31,38.41-12.15,58.5a1.85,1.85,0,0,1-1.42,1.45c-2.43.25-4.65.5-6.49,2.06A119.28,119.28,0,0,1,422,484.88a112.83,112.83,0,0,1-32.92,10.94,96.66,96.66,0,0,1-15.82,1.54c-4.23,0-8.46-.19-12.7-.3a1.61,1.61,0,0,1-.74-.2c-2,.13-15.94-2.4-18-2.92-43.31-11.15-76.8-46.51-86.5-91.35a119.93,119.93,0,0,1-2.67-22.5,122.33,122.33,0,0,1,11.77-56.28c1.07-2.22,2.24-4.4,3.37-6.59a2.75,2.75,0,0,1,.65-.79,1,1,0,0,1,1-.22c2.77-6.43,5.62-12.75,9.79-18.49a48.41,48.41,0,0,1,14.34-12.45V285l.9-.83a115.2,115.2,0,0,1,64.31-27.84,48.3,48.3,0,0,1,10.2-.19c1.38-.83,2.79-1.79,4.4-1.79,17.53-.86,35.07,1.17,50.35,11.94a7.08,7.08,0,0,1,2.86,4.46,119.22,119.22,0,0,1,38.82,35.49,5.44,5.44,0,0,1,.71,1.5.66.66,0,0,1,0,.48c.79.43,1.58.79,2.29,1.1,13,6.11,13.58,21.54,15.28,34.63.56,4.95,4.24,9,5.09,14,1.13,6.4,4.24,12.23,1.94,18.63Z" transform="translate(-232.55 -249.99)"/><path class="cls-4" d="M470.65,439.7a1.15,1.15,0,0,1-1.16-1.13,1.26,1.26,0,0,1,.16-.63l.3-.51a1,1,0,0,0,.14-.42q.11-1.14.18-2.31c.1-1.41.21-2.87.41-4.32a28.56,28.56,0,0,1,3.56-10.81,10.58,10.58,0,0,0,1.45-5.35,22,22,0,0,0-1.59-8.13,14.81,14.81,0,0,1-.71-3.55,8.36,8.36,0,0,1,.81-4,1.92,1.92,0,0,0-.68-2.59,1.79,1.79,0,0,0-.74-.24,3.2,3.2,0,0,1-1.4-.76.66.66,0,0,0-.52-.2,1.21,1.21,0,0,0-.38,0,8.76,8.76,0,0,0-1.32.41,17.53,17.53,0,0,1-6.45,1.39,23,23,0,0,0-6,.74,2.58,2.58,0,0,1-.73.11,2.79,2.79,0,0,1-2-1l-.74-.78a42.67,42.67,0,0,0-3.24-3.21,21.34,21.34,0,0,1-4.86-5.71,13.51,13.51,0,0,0-2.57-3.43,3.58,3.58,0,0,1-.57-4.45,2.55,2.55,0,0,1-1-1.81,3.07,3.07,0,0,1,.88-2.28,6,6,0,0,0,.77-1.35l.08-.19c0-.11,0-.23.05-.34a1.12,1.12,0,0,1,.07-.48,3.76,3.76,0,0,0-.54-2.83c-2.51-3.95-2.21-7.94.87-11.55a29.47,29.47,0,0,0,3.3-4.45,29.14,29.14,0,0,1,4.83-6.5,8.08,8.08,0,0,1,3.33-7.66c.59-.43.62-.64.54-1a2.12,2.12,0,0,1,.39-1.49,2.73,2.73,0,0,1-.23-.25,2.75,2.75,0,0,0-2.37-.91,2.27,2.27,0,0,1-1.88-1,2.32,2.32,0,0,1-.28-2.06c.15-.47.12-.79-.46-1.36a2.1,2.1,0,0,1-.5-2.87,1.84,1.84,0,0,1,.17-.22,2.44,2.44,0,0,0,.21-2.71,2.09,2.09,0,0,1-.11-1.93c0-.08-.09-.18-.13-.25a2.46,2.46,0,0,1,.3-2.95,2.25,2.25,0,0,1,1.65-.72,2.68,2.68,0,0,1,1.14.26h.11c.23.1.46.2.7.28a2.44,2.44,0,0,1,1.06-.26,2,2,0,0,1,1.84,1.26h.08a9.65,9.65,0,0,0,1.93.27c.29,0,.42-.07.43-.09a.75.75,0,0,0,0-.42,9.81,9.81,0,0,0-1.09-2.76l-.23-.36c-.87-1.32-1.48-2.14-2.66-2.24a1.77,1.77,0,0,1-1.28-.72,2.2,2.2,0,0,1-.33-1.75,1.94,1.94,0,0,1,1.9-1.59,2.12,2.12,0,0,1,.57.09l.57.2a2.27,2.27,0,0,0,.46.16h.48a2,2,0,0,0,.64-.1,4.51,4.51,0,0,0,.91-.51h.06a2.69,2.69,0,0,1,1.88-2.2,2.74,2.74,0,0,1,.7-.09h0a1.59,1.59,0,0,1,.35-1.86,2.31,2.31,0,0,1,1.59-.56,1.85,1.85,0,0,1,.47,0,3.36,3.36,0,0,1,1.09.41l.19.09.17-.08a.9.9,0,0,1,.42-.08,1.24,1.24,0,0,1,.53.12,23.93,23.93,0,0,0,2.21,1c12.38,5.83,14,19.59,15.49,31.82.15,1.26.3,2.51.46,3.73a21.35,21.35,0,0,0,2.47,6.9,26.15,26.15,0,0,1,2.61,7l.4,2.25c1,5.4,1.92,10.52,1.6,16.64-.76,15-4,25.21-6.94,34.24-2.48,7.77-4.84,15.1-5.22,24.25a3,3,0,0,1-2.47,2.57c-2.19.23-4.25.44-5.85,1.78A1.07,1.07,0,0,1,470.65,439.7Zm-3.22-104a7.92,7.92,0,0,1,1.61.16,8.42,8.42,0,0,1,6.62,5.76,6.55,6.55,0,0,0,2.12,3.09l.45.35c1,.79,2,1.6,3,2.48a.59.59,0,0,0,.43.21,1.8,1.8,0,0,0,.79-.31,1.72,1.72,0,0,0,.09-.71,2.17,2.17,0,0,0-.08-.43l-.94-3c-.65-2.06-1.31-4.2-2-6.31a3.09,3.09,0,0,1-.48.66l-.12.14a1.12,1.12,0,0,1-.87.42H478a1.17,1.17,0,0,1-.88-.56l-.09-.13a2.79,2.79,0,0,1-.39-.77,3.47,3.47,0,0,1-.16-.71c0-.13-.05-.26-.08-.39l-.36-.51a21.33,21.33,0,0,0-2.35-3.09,10,10,0,0,1-3-5.24.93.93,0,0,0-.15-.45c-.05,0-.14,0-.33.31a2.29,2.29,0,0,1-1.87,1,2.21,2.21,0,0,1-1.25-.37,3.3,3.3,0,0,1-2.09,2.36.86.86,0,0,0-.26.21,17.66,17.66,0,0,0-.43,3,3.48,3.48,0,0,1-3.37,3.52,3.21,3.21,0,0,1-.81-.1,2.41,2.41,0,0,0-.6-.08,1,1,0,0,0-.77.33l.36.17.57.28.24.07a3.25,3.25,0,0,1,.9.38,1.42,1.42,0,0,0,.83.31,2,2,0,0,0,1.11-.46A7.91,7.91,0,0,1,467.43,335.72Z" transform="translate(-232.55 -249.99)"/><path class="cls-5" d="M463.77,307.89H464a8.9,8.9,0,0,1,1.31.56,1.07,1.07,0,0,0,.35.06.36.36,0,0,0,.4-.27c.79.43,1.58.79,2.3,1.1,13,6.11,13.58,21.54,15.27,34.63.56,4.95,4.24,9,5.09,14,1.13,6.4,2.33,11.83,2,18.63-1.42,27.64-11.31,38.41-12.16,58.49a1.84,1.84,0,0,1-1.41,1.46c-2.44.24-4.65.5-6.49,2.06l.3-.52a2.17,2.17,0,0,0,.29-.9c.22-2.2.29-4.41.6-6.57a27.66,27.66,0,0,1,3.39-10.38,11.79,11.79,0,0,0,1.63-5.94,23.63,23.63,0,0,0-1.68-8.56,14.56,14.56,0,0,1-.64-3.27,7.48,7.48,0,0,1,.73-3.46,3.06,3.06,0,0,0-1.24-4.09,2.91,2.91,0,0,0-.94-.32,1.9,1.9,0,0,1-.89-.46,1.88,1.88,0,0,0-1.31-.53,2.55,2.55,0,0,0-.61.08,8.94,8.94,0,0,0-1.5.46,16.64,16.64,0,0,1-6,1.31,24,24,0,0,0-6.3.78,1.84,1.84,0,0,1-.42.07,1.8,1.8,0,0,1-1.23-.61c-1.32-1.38-2.61-2.81-4-4.07a20.85,20.85,0,0,1-4.62-5.4,14.89,14.89,0,0,0-2.78-3.71,2.38,2.38,0,0,1-.34-3,.9.9,0,0,0-.25-1.45,1.51,1.51,0,0,1,0-2.42,6.86,6.86,0,0,0,1-1.82,5.18,5.18,0,0,0,.21-1.11,5,5,0,0,0-.7-3.69c-2.25-3.51-1.94-7,.77-10.14a31.16,31.16,0,0,0,3.43-4.63,27,27,0,0,1,4.64-6.27,1.2,1.2,0,0,0,.27-.84,6.8,6.8,0,0,1,2.81-6.72,2.06,2.06,0,0,0,1-2.22,1.12,1.12,0,0,1,.48-.89.42.42,0,0,1,.25-.06,2.32,2.32,0,0,1,.68.16c.51.2,1,.49,1.5.7a6,6,0,0,1,1,.36,2.54,2.54,0,0,0,1.47.51,3.06,3.06,0,0,0,1.75-.67,6.84,6.84,0,0,1,4.06-1.34,7.47,7.47,0,0,1,1.41.13,7.28,7.28,0,0,1,5.74,5,7.66,7.66,0,0,0,2.5,3.61c1.15.91,2.32,1.81,3.42,2.79a1.75,1.75,0,0,0,1.12.48,2.73,2.73,0,0,0,1.37-.48c.68-.43.64-1.13.63-1.81a2.34,2.34,0,0,0-.13-.69c-1.26-4.05-2.5-8.11-3.81-12.14a8.72,8.72,0,0,0-2.23-3.58c-1.07-1-2.08-2.16-3.12-3.23-.18-.2-.38-.38-.58-.58l-.14.11a2.61,2.61,0,0,0,.18.78c.54.9,1.08,1.77,1.68,2.62.82,1.12,1.66,2.23,2.52,3.31.33.42.75.77,1.12,1.16.12.13.29.31.26.43a.58.58,0,0,1-.37.39c-.41,0-.47.29-.44.64a1.23,1.23,0,0,1,0,.54,3,3,0,0,1-.49.62,3.14,3.14,0,0,1-.37-.64,5.67,5.67,0,0,0-.37-1.4,26.78,26.78,0,0,0-2.87-3.73,9,9,0,0,1-2.63-4.63c-.13-.63-.36-1.21-1-1.36h-.28a1.52,1.52,0,0,0-1.2.79,1.18,1.18,0,0,1-1,.55,1.24,1.24,0,0,1-1-.58c-.09-.13-.15-.32-.28-.39a2,2,0,0,0-.74-.28h-.09c-.15,0-.3.5-.29.76a2.2,2.2,0,0,1-1.51,2.51,1.61,1.61,0,0,0-.85.89,18.35,18.35,0,0,0-.48,3.31,2.34,2.34,0,0,1-2.24,2.4,2.59,2.59,0,0,1-.55-.07,4.13,4.13,0,0,0-.86-.11,2.15,2.15,0,0,0-1.69.79,1.17,1.17,0,0,1-.83.39,1,1,0,0,1-.76-.37,3.81,3.81,0,0,0-3.25-1.35,1.11,1.11,0,0,1-1.15-1.06,1.09,1.09,0,0,1,.06-.44,2.3,2.3,0,0,0-.77-2.57c-.59-.57-.59-.91-.16-1.58a3.59,3.59,0,0,0,.25-3.91,1,1,0,0,1-.11-.79c.35-.54.12-1-.13-1.41a1.25,1.25,0,0,1,.14-1.55,1.08,1.08,0,0,1,.83-.39,1.68,1.68,0,0,1,.69.18,10,10,0,0,0,1.07.43h.21a.9.9,0,0,0,.4-.09,1.34,1.34,0,0,1,.64-.2q.57,0,.87.75a.79.79,0,0,0,.42.44,15.78,15.78,0,0,0,2.56.36h0a1.39,1.39,0,0,0,1.58-1.18,1.45,1.45,0,0,0-.11-.82,10,10,0,0,0-1.24-3.09c-.91-1.37-1.78-2.94-3.72-3.1-.53,0-.71-.55-.61-1a.81.81,0,0,1,.8-.65h.26a6,6,0,0,0,1.24.4h.58a2.82,2.82,0,0,0,1-.15,10.46,10.46,0,0,0,1.69-1,1.63,1.63,0,0,1,1.12-1.76,1.21,1.21,0,0,1,.38,0h.83a1.29,1.29,0,0,0,.81-.32c.1-.15-.05-.59-.22-.8s-.62-.7-.25-1a1.21,1.21,0,0,1,.82-.25m0-2.33h0a3.43,3.43,0,0,0-2.39.9,3,3,0,0,0-.85,1.75,3.74,3.74,0,0,0-2.32,2.5,1.7,1.7,0,0,1-.35.19h-.59l-.21-.08a5.3,5.3,0,0,0-.67-.23,2.89,2.89,0,0,0-.88-.14,3.09,3.09,0,0,0-3,2.53,3.35,3.35,0,0,0,.54,2.68,2.89,2.89,0,0,0,2.08,1.17c.62,0,1,.44,1.83,1.75l.24.36a6.15,6.15,0,0,1,.6,1.33h-.3A3,3,0,0,0,455,318.9a3.25,3.25,0,0,0-1.07.18l-.23-.1h-.12a3.66,3.66,0,0,0-1.59-.36,3.51,3.51,0,0,0-3.38,3.64,3.61,3.61,0,0,0,.37,1.51,3.51,3.51,0,0,0,.36,2.44c.21.38.32.73-.16,1.48a3.34,3.34,0,0,0,.49,4.57,1.29,1.29,0,0,1,.16.17,3.51,3.51,0,0,0,.44,3.1A3.43,3.43,0,0,0,453,337a2.44,2.44,0,0,1,1.24.24,2.81,2.81,0,0,0-.14,1.32l-.06.05a9,9,0,0,0-3.81,8.25,30.64,30.64,0,0,0-4.64,6.35,28.89,28.89,0,0,1-3.17,4.28c-3.41,4-3.76,8.59-1,13a2.48,2.48,0,0,1,.38,1.95,5.58,5.58,0,0,0-.09.59v.11h0a4.16,4.16,0,0,1-.57,1A4.2,4.2,0,0,0,440,377.3a3.77,3.77,0,0,0,.75,1.94,4.83,4.83,0,0,0,1.19,5.09,12.52,12.52,0,0,1,2.35,3.14,22.11,22.11,0,0,0,5.11,6c1.08.95,2.08,2,3.16,3.09l.75.8a3.88,3.88,0,0,0,2.83,1.31,4.33,4.33,0,0,0,1-.15,22,22,0,0,1,5.71-.7,18.52,18.52,0,0,0,6.84-1.46,5.9,5.9,0,0,1,1.15-.36h0a4.14,4.14,0,0,0,1.77.9,1.24,1.24,0,0,1,.74.44,1.22,1.22,0,0,1-.1.84,9.55,9.55,0,0,0-.89,4.59,16.68,16.68,0,0,0,.78,3.84,21.06,21.06,0,0,1,1.55,7.61,9.35,9.35,0,0,1-1.3,4.76,29.93,29.93,0,0,0-3.71,11.26c-.21,1.48-.31,3-.41,4.39-.06.75-.11,1.5-.18,2.24l-.16.28-.13.21a2.37,2.37,0,0,0,.46,3,2.21,2.21,0,0,0,1.48.57,2.24,2.24,0,0,0,1.44-.53c1.23-1,2.79-1.26,5.21-1.51a4.07,4.07,0,0,0,3.51-3.71c.39-9,2.6-15.9,5.16-23.9,2.92-9.11,6.23-19.43,7-34.55.32-6.27-.61-11.44-1.61-16.92-.13-.74-.26-1.49-.41-2.24a26.82,26.82,0,0,0-2.71-7.33,21,21,0,0,1-2.36-6.5c-.16-1.27-.31-2.5-.46-3.76-1.49-12.49-3.17-26.64-16.12-32.72h0c-.69-.31-1.42-.63-2.14-1a2.22,2.22,0,0,0-1-.25,2.48,2.48,0,0,0-.54.06,4.07,4.07,0,0,0-1.13-.38,3,3,0,0,0-.66-.07Zm4.61,23.34a3.3,3.3,0,0,0,1.62-.43,11.79,11.79,0,0,0,2.91,4.46,21.43,21.43,0,0,1,2.22,2.88l.23.32v.09a8.79,8.79,0,0,0,.19.89,4.88,4.88,0,0,0,.54,1l.06.08a2.31,2.31,0,0,0,1.77,1.1h.16a2.18,2.18,0,0,0,1-.22l1.38,4.47c.24.79.49,1.6.74,2.39-.77-.65-1.54-1.25-2.29-1.83l-.45-.36a5.35,5.35,0,0,1-1.78-2.55,9.56,9.56,0,0,0-7.45-6.51,10.1,10.1,0,0,0-1.82-.17,8.55,8.55,0,0,0-2.51.35,5.26,5.26,0,0,0,.48-2.06,14.87,14.87,0,0,1,.3-2.32,4.89,4.89,0,0,0,2-1.76,2.89,2.89,0,0,0,.72.07Z" transform="translate(-232.55 -249.99)"/></g><path class="cls-7" d="M363.17,257A122.38,122.38,0,1,1,240.73,379.36,122.46,122.46,0,0,1,363.17,257m0-2.62a124.21,124.21,0,0,0-88.35,36.59c-47.46,46.86-49,124.42-3.48,173.25q1.7,1.83,3.48,3.58c49.37,48.77,127.35,48.77,176.72,0,47.46-46.85,49-124.42,3.48-173.25q-1.69-1.83-3.48-3.58A124.22,124.22,0,0,0,363.17,254.35Z" transform="translate(-232.55 -249.99)"/></g><g id="Livello_3" data-name="Livello 3"><g id="Livello_1-2-2" data-name="Livello 1-2"><path class="cls-8" d="M249,376.41l.64-.2,1.52-.41a31.14,31.14,0,0,1,3.75-.59,57.24,57.24,0,0,1,10.57.6c2.17.29,4.31.66,8.59,1.4.93.16,3.19.55,5.53,1,5.79,1.07,9.79,1.75,14.32,3,8.42,2.24,12.54,3.48,14.9,4,3.8.84,4,.81,6.5,1.43,4.55,1.14,6.06,1.92,9.07,2.56,4.85,1,5.45.89,12.87,2.29,2.59.49,5.79,1.07,10.37,2.31l.92.22.52,0c-.08.09-.39.27-.47.36a8,8,0,0,1-1.06.62,4.43,4.43,0,0,1-.42.29l-.39.2a.5.5,0,0,0,.17.11c.6.25,1.28.24,1.91.43a1.27,1.27,0,0,0,.18.06c.63.15,4.61.9,14.55,2.74a1.75,1.75,0,0,0,1.33-.51c.31-.25.41-.55.72-.8l.15,0c.11,0,.29.24.64.44a3.07,3.07,0,0,1,1.22,2.28,4.91,4.91,0,0,1-.24,2.74.11.11,0,0,0-.09.1c0,.17-.19.27-.38.26a2,2,0,0,1-.54-.17,4.22,4.22,0,0,0-.85-.21,3.87,3.87,0,0,1-.68-.12,23.85,23.85,0,0,0-3.9-1.22c-.34-.06-.69-.15-1-.2l-5.39-.92c-.79-.13-1.58-.27-2.38-.36a15.07,15.07,0,0,0-2.2-.23,28.78,28.78,0,0,0,3.13,2l3.32,2.11c1.33.84,1.58.86,1.59,1,0,1.22-9.68,1.8-10.43,1.84-1.17.07-1.46.06-10.88.1-3.3,0-6.58,0-9.88,0-2.44,0-4,.06-6.42-.08-2.65-.15-5.32.05-6.16-.63-2.95-2.37-5.13-3.7-7.48-4.25a74.18,74.18,0,0,0-11.85-2.88c-1-.16-16.39-3.5-11.43,2.61.29.35-1.38-.27-2.54-.53-2.46-.55-4.53-1.16-20.5-4.9a68.91,68.91,0,0,1-12.83-4c-2.07-.9-5.5-3.56-9.08-5.5-.07,0-.62-.34-1.33-.81a10.44,10.44,0,0,1-3.84-4.06,2.26,2.26,0,0,1-.21-1.6,2.69,2.69,0,0,1,1.55-1.48,16.14,16.14,0,0,1,7.39-1.36c.53,0,.92.07,1.24.1a7.92,7.92,0,0,0,1.19.16,4.92,4.92,0,0,0,.67,0A26.09,26.09,0,0,0,249,376.41Z" transform="translate(-232.55 -249.99)"/><path class="cls-8" d="M283.15,401.23a9.44,9.44,0,0,0,2.94,2.86s1.58,1.15,4.47,3.53c1.18,1,2.17,1.86,4.1,3.59a27.87,27.87,0,0,0,3.54,2.87c1,.65,1.25.68,2.38,1.37a28.56,28.56,0,0,1,3.55,2.59c2.18,1.81,3.88,2.77,7.09,5,6.79,4.65,14.1,10.5,24.26,17.14.79.51,1.62,1.53,2.59,1.73s2-.95,2.74-1.42c1.72-1.15,3.41-2.31,5.09-3.5.9-.63,1.26-.76.34-1.59l-2-1.77-.73-.64c-2.25-2-7.39-6.27-11.11-9.58-6-5.39-6.9-7.07-15-14.11l-.73-.64c-1.3-1.13-3.78-4.06-6.74-5.52a21.78,21.78,0,0,0-2.46-.87,94.53,94.53,0,0,0-9.65-2.56,63.57,63.57,0,0,0-9.54-1.41c-4-.26-5.38.1-5.72.85S282.77,400.56,283.15,401.23Z" transform="translate(-232.55 -249.99)"/><path class="cls-8" d="M339.91,442.14c3,.31,5.23.55,6.44.69.32,0,1.17.13,2.3.22l1.17.08c1.54.09,2.13.4,2.83.11.29-.12.48-.28,1.56-1.79,1.61-2.24,1.32-2.1,1.75-2.47a7,7,0,0,0,1.33-1.66.59.59,0,0,0,.1-.57c-.17-.31-.83-.3-1.37-.33a21.11,21.11,0,0,1-2.84-.69,23.12,23.12,0,0,0-3.16-.65,5,5,0,0,0-3,1.08c-3.26,2.42-5.37,3.75-6.82,4.79-.25.18-1.42.71-1.85,1A10.06,10.06,0,0,0,339.91,442.14Z" transform="translate(-232.55 -249.99)"/><path class="cls-8" d="M238.51,386.78a5,5,0,0,0,1.09-6.2,6.09,6.09,0,0,0-3.14-2.41" transform="translate(-232.55 -249.99)"/><path class="cls-8" d="M367.6,403.52a7.43,7.43,0,0,1,1.74,1.24c1.1,1,5,3.25,11.34,7.41a42.25,42.25,0,0,1-11.45-2.36c-3.89-1.61-3.37-1.42-9.38-4.34,0,0-2.38-1-8.84-5.14-.12-.08-.39-.24-.35-.36.18-.67,9.29,1.4,11.47,1.92l2.25.6A14.49,14.49,0,0,1,367.6,403.52Z" transform="translate(-232.55 -249.99)"/><path class="cls-8" d="M374.29,382.4a16.65,16.65,0,0,0-4.51-1.41,7.88,7.88,0,0,0-3.55,0,5.63,5.63,0,0,0-2.71,1.73c-1.5,1.61-6.37,5.61-14.43,11.29-.78.55-1.42,1-2.2,1.51q7.86,1.69,15.81,3a18.43,18.43,0,0,1,1.59-4.1c1.22-2.31,2.93-4.35,4-6.74a6.38,6.38,0,0,1,1.52-2.56c.78-.64,2.21-.66,2.68.24.46-.94.93-1.89,1.41-2.82C373.74,382.52,374.43,382.4,374.29,382.4Z" transform="translate(-232.55 -249.99)"/><path class="cls-8" d="M372.5,385.43a2.25,2.25,0,0,0-1.59-.81,1.82,1.82,0,0,0-1.35.6,1.59,1.59,0,0,0-.39.69,50.89,50.89,0,0,1-2.44,4.63c-1.27,2.29-1.47,2.08-2.46,4a22.66,22.66,0,0,0-1.67,4.09,2.18,2.18,0,0,0,1.91-.37,6,6,0,0,0,1.32-1.48,86.8,86.8,0,0,0,6.42-10.55A5.77,5.77,0,0,0,372.5,385.43Z" transform="translate(-232.55 -249.99)"/><path class="cls-8" d="M245.81,397.54a.76.76,0,0,0,.75.22.75.75,0,0,0,.49-.2c.15-.19,0-.46-.11-.68l-.21-.3a1.24,1.24,0,0,0-.55-.46c-.36-.13-1.06-.07-1.12.32S245.48,397.29,245.81,397.54Z" transform="translate(-232.55 -249.99)"/><path class="cls-8" d="M243,394.78a.36.36,0,0,0-.08.12" transform="translate(-232.55 -249.99)"/><path class="cls-8" d="M242.9,394.9a1.63,1.63,0,0,0-.11.23,3.55,3.55,0,0,0-.29,1.06,1.59,1.59,0,0,0,.29,1.08,3.2,3.2,0,0,0,1.26.8l1,.42a6.07,6.07,0,0,0,1.15.41,1.86,1.86,0,0,0,1.17-.11,1.31,1.31,0,0,0,.69-1.28,3.66,3.66,0,0,0-.47-1.59,4.62,4.62,0,0,1-.42-.83c0-.1,0-.11-.07-.16-.28-.17-.42-.5-.73-.63a8.21,8.21,0,0,0-1.66-.18l.94,0S243.41,394,242.9,394.9Z" transform="translate(-232.55 -249.99)"/><path class="cls-8" d="M301.69,382.46c1.12-.86,12.58-19,14.35-21,.58-.69,1-1.48,1.59-2.18s1.07-1.24.89-1.69-.56-.51-1.24-.74a17.28,17.28,0,0,0-3.45-1.07c-1.48.14-1.38,1.53-3.78,3.47a28.36,28.36,0,0,1-3.1,1.93c-1.81,1.12-2.88,1.87-4.3,2.8-8.76,5.83-11.35,7.48-15.41,10.05-3.35,2.13-6.17,4.1-7.21,4.2a15.06,15.06,0,0,1,2,.25c1.06.21,1.43.24,2.43.46.68.15.8.19,1.55.37,1.27.3,2.19.45,2.66.54a67.87,67.87,0,0,1,7.92,2c1.21.4,2.5.5,3.7.92a1.54,1.54,0,0,0,.6.09A1.64,1.64,0,0,0,301.69,382.46Z" transform="translate(-232.55 -249.99)"/><path class="cls-8" d="M243.68,390.19a2.17,2.17,0,0,1,.92.77c.25.42.07.58.33,1s.7.38,1.11.94a1,1,0,0,1,.25.56c0,.35-.3.45-.22.69a.86.86,0,0,0,.86.42c.42-.08.38-.58.78-.65s.44.2,1.12.48a3.39,3.39,0,0,0,1.08.29c.78,0,1.6-.46,1.53-.78s-.76-.29-2.1-.74a14.22,14.22,0,0,1-1.8-.75Z" transform="translate(-232.55 -249.99)"/><path class="cls-8" d="M316.33,361.29l-6.28-2.09" transform="translate(-232.55 -249.99)"/><path class="cls-8" d="M313.62,363.81a.76.76,0,0,0-.66-.29,2.11,2.11,0,0,0-1.84.38s-1.07,1.84-1.09,1.88c-.15.24-.87,1.13-4.5,6.08-1.54,2.1-1.39,1.4-3,3.62-1.35,1.83-2.37,3.54-4.61,6.18a1.5,1.5,0,0,0-.06.29c0,.41,1.83.74,3.47.8.9,0,1.16-1,1.3-1.26,1.56-3,3.86-5.55,5.57-8.44s2.47-4.14,2.79-4.53c1-1.2,1.6-2.63,2.56-3.83.08-.1.43-.31.29-.6A1.26,1.26,0,0,0,313.62,363.81Z" transform="translate(-232.55 -249.99)"/><path class="cls-8" d="M279,377.87c-1.67-.09-.94-.3-.86-.72a4.59,4.59,0,0,1,1.42-2.33c.65-.37,1.14-1.08,2.13-.9a16.14,16.14,0,0,1,2.59.56c.81.36,1.31.43,1.06.58-2,1.22-3.95,2.42-4.93,2.84A1.66,1.66,0,0,1,279,377.87Z" transform="translate(-232.55 -249.99)"/><path class="cls-8" d="M288.8,372.9c-.5.24-1.58-2.2-1.2-3.26a4.67,4.67,0,0,1,1.37-2,2,2,0,0,1,1.25-.56,13,13,0,0,1,2.41.53c.57.11,0,0,1.69-.09a8.45,8.45,0,0,0,2.17-.16,3,3,0,0,1,.9-.13C295.32,368.61,292.1,371.29,288.8,372.9Z" transform="translate(-232.55 -249.99)"/><path class="cls-8" d="M248,376.68a.49.49,0,0,1,.24,0,.91.91,0,0,1,.16.11.57.57,0,0,1,.11.16c0,.09.08.1.5.49a5.58,5.58,0,0,0,.6.49,7.85,7.85,0,0,0,1.34.67c.65.33,1.06.55,1.14.9a.56.56,0,0,1-.18.57,1.44,1.44,0,0,1-.4.23,1.34,1.34,0,0,1-.4.06,1.6,1.6,0,0,1-.61-.14l-.55-.17a7,7,0,0,0-.69-.2,5.69,5.69,0,0,1-.65-.24l-.2-.1a3.3,3.3,0,0,1-.51-.31c-.47-.32-1-.79-1.64-1.24-.4-.28-.57-.35-.56-.46s.42-.12,1.06-.34c.44-.15.93-.41,1.24-.49" transform="translate(-232.55 -249.99)"/><path class="cls-9" d="M365.84,396.79c-.65,1-1.53,2.06-2.72,1.95a.53.53,0,0,1-.33-.12.58.58,0,0,1-.09-.53,16.34,16.34,0,0,1,3.17-6.29,17.83,17.83,0,0,0,1.77-2.8,13.8,13.8,0,0,1,1.61-3.4c.52-.61,2.4-1.62,3-.53.45.87-.89,2.74-1.26,3.44A96.51,96.51,0,0,1,365.84,396.79Z" transform="translate(-232.55 -249.99)"/><path class="cls-8" d="M317.25,438.71c3.35,1.12,6.24,2,8.53,2.7a5.43,5.43,0,0,0,3.07.2,3.89,3.89,0,0,0,1.7-1,2.61,2.61,0,0,0,1-2.37,2.21,2.21,0,0,0-.87-1.29c-4.91-3.07-6.83-5.2-10.58-7.19a6,6,0,0,0-2.54-.09c-.94.06-1.59,1-2,1.82a7.62,7.62,0,0,0-1,3.45,3.28,3.28,0,0,0,.19,1.39,3.77,3.77,0,0,0,.95,1.23A4.25,4.25,0,0,0,317.25,438.71Z" transform="translate(-232.55 -249.99)"/><path class="cls-8" d="M318.26,429.64a2.62,2.62,0,0,0-2.12,1,5,5,0,0,0-1.23,2.47,5.14,5.14,0,0,0-.2,2.84,3.81,3.81,0,0,0,1.09,1.92,2.73,2.73,0,0,0,1.81.87,2.23,2.23,0,0,0,1.55-.69,3.76,3.76,0,0,0,1-1.81,5.34,5.34,0,0,0,.43-2.31c0-.08,0-.07-.54-2a3.2,3.2,0,0,0-.7-1.65A2.18,2.18,0,0,0,318.26,429.64Z" transform="translate(-232.55 -249.99)"/><path class="cls-8" d="M317.68,431.69a2,2,0,0,0-.8,1.23,8.43,8.43,0,0,0-.59,2.26c-.05,1.11.27,1.44.39,1.55a1,1,0,0,0,.55.27c.7.08,1.23-.85,1.42-1.18a5.37,5.37,0,0,0,.5-2,2.46,2.46,0,0,0-.12-1.67,1.11,1.11,0,0,0-.67-.62A.93.93,0,0,0,317.68,431.69Z" transform="translate(-232.55 -249.99)"/><path class="cls-8" d="M296.9,422.4c2.64.83,4,1.25,4.44,1.33,1.44.2,3.39.48,4.55-.57a2.43,2.43,0,0,0,.64-3,2.56,2.56,0,0,0-.85-.75c-1.05-.7-2-1.55-3-2.28-3.11-2.26-3.31-2.68-4.41-2.91a4.9,4.9,0,0,0-2.19,0,4.1,4.1,0,0,0-3.23,3.41,4.36,4.36,0,0,0,1.95,3.94A7.85,7.85,0,0,0,296.9,422.4Z" transform="translate(-232.55 -249.99)"/><path class="cls-8" d="M293.45,416.15a3.93,3.93,0,0,0-.43.93,3.41,3.41,0,0,0-.2,1.38,3.85,3.85,0,0,0,1,2.14,5.05,5.05,0,0,0,1.55,1.23,2.19,2.19,0,0,0,1.47.37c.18-.05.34-.16.94-1.15a6.23,6.23,0,0,0,.88-1.76,4.28,4.28,0,0,0,.1-1.29,5.41,5.41,0,0,0-.19-1.26,3.57,3.57,0,0,0-.82-1.74,1.67,1.67,0,0,0-1.88-.57,3.76,3.76,0,0,0-1.42.69A4.31,4.31,0,0,0,293.45,416.15Z" transform="translate(-232.55 -249.99)"/><path class="cls-8" d="M295.85,415.93a1.41,1.41,0,0,0-.94.71,3,3,0,0,0-.25,2.92c.16.32.46.91,1,1,.75.12,1.36-.91,1.41-1a4.09,4.09,0,0,0,.19-2.15c0-.77-.13-1-.34-1.2A1.3,1.3,0,0,0,295.85,415.93Z" transform="translate(-232.55 -249.99)"/></g><g id="Livello_2-2" data-name="Livello 2-2"><path class="cls-8" d="M263.63,385.31a1.39,1.39,0,0,0,.75.36.7.7,0,0,0,.7-.3.69.69,0,0,0,0-.49,1.22,1.22,0,0,0-.55-.64c-.33-.18-.92-.41-1.17-.08A.85.85,0,0,0,263.63,385.31Z" transform="translate(-232.55 -249.99)"/><path class="cls-8" d="M266.77,385.77a2.52,2.52,0,0,0,.69.41,1.89,1.89,0,0,0,.93.21.69.69,0,0,0,.6-.84.73.73,0,0,0-.23-.37,2.39,2.39,0,0,0-1-.44,1.67,1.67,0,0,0-.73-.14.65.65,0,0,0-.46.89A.87.87,0,0,0,266.77,385.77Z" transform="translate(-232.55 -249.99)"/><path class="cls-8" d="M270.54,385.9a.79.79,0,0,0-.85.5.49.49,0,0,0,0,.34.69.69,0,0,0,.24.27,1.77,1.77,0,0,0,.86.32c.24,0,.48-.05.73,0a1.13,1.13,0,0,0,.41,0,.35.35,0,0,0,.23-.38,1,1,0,0,0-.18-.45,1,1,0,0,0-.18-.23,1.14,1.14,0,0,0-.42-.19,3.66,3.66,0,0,0-.81-.18.56.56,0,0,0-.38.08" transform="translate(-232.55 -249.99)"/><path class="cls-8" d="M273.16,387a1,1,0,0,0,.17.81,1.29,1.29,0,0,0,.52.33,3.06,3.06,0,0,0,.79.2.45.45,0,0,0,.58-.24s0-.06,0-.09a1,1,0,0,0,0-.53,1,1,0,0,0-.63-.57,3.68,3.68,0,0,0-1.06-.31C273.29,386.58,273.2,386.78,273.16,387Z" transform="translate(-232.55 -249.99)"/><path class="cls-8" d="M276.23,388.76a2,2,0,0,0,.59.21,2.2,2.2,0,0,0,1,0,.78.78,0,0,0,.6-.62.83.83,0,0,0-.44-.76,2,2,0,0,0-1.74-.06A.74.74,0,0,0,276.23,388.76Z" transform="translate(-232.55 -249.99)"/><path class="cls-8" d="M279.61,389.3a.56.56,0,0,0,.37.33h.25l.56,0a.7.7,0,0,0,.35-.09.56.56,0,0,0,.2-.28,2.22,2.22,0,0,0,.12-.39.36.36,0,0,0,0-.25.54.54,0,0,0-.16-.21c-.33-.31-.91-.65-1.36-.4A1.21,1.21,0,0,0,279.61,389.3Z" transform="translate(-232.55 -249.99)"/><path class="cls-8" d="M282.66,388.93a1.16,1.16,0,0,0-.26.49.7.7,0,0,0,.1.56,1.2,1.2,0,0,0,.4.3,3.54,3.54,0,0,0,.64.25.91.91,0,0,0,.67,0,.82.82,0,0,0,.33-.41,1.94,1.94,0,0,0,.2-.57.74.74,0,0,0-.17-.58,1.17,1.17,0,0,0-.42-.27C283.52,388.44,283.05,388.43,282.66,388.93Z" transform="translate(-232.55 -249.99)"/><path class="cls-8" d="M285.62,389.46a1.19,1.19,0,0,0,0,.85,1,1,0,0,0,.29.51,1.68,1.68,0,0,0,.6.33,1.22,1.22,0,0,0,.73.08.72.72,0,0,0,.36-.3,2.43,2.43,0,0,0,.27-1.15.55.55,0,0,0,0-.22.65.65,0,0,0-.25-.27C286.93,388.85,285.94,388.71,285.62,389.46Z" transform="translate(-232.55 -249.99)"/><path class="cls-8" d="M288.79,390.33a1.28,1.28,0,0,0,1,1.53,1.49,1.49,0,0,0,.47.07,1,1,0,0,0,.35-.07,1,1,0,0,0,.44-.35,1.07,1.07,0,0,0,.21-.69.91.91,0,0,0-.33-.68C290.25,389.59,289.05,389.49,288.79,390.33Z" transform="translate(-232.55 -249.99)"/><path class="cls-8" d="M293.31,390.84a.79.79,0,0,0-.41.77,1.12,1.12,0,0,0,.63.77,1.09,1.09,0,0,0,1.05,0,.86.86,0,0,0,.05-1.31,1.17,1.17,0,0,0-1.32-.24Z" transform="translate(-232.55 -249.99)"/><path class="cls-8" d="M296.68,391.58a1,1,0,0,0-.2.49.64.64,0,0,0,0,.47,1,1,0,0,0,.18.22,1.61,1.61,0,0,0,1.25.47.93.93,0,0,0,.7-.5,1,1,0,0,0,0-.82.92.92,0,0,0-.17-.29A1.38,1.38,0,0,0,296.68,391.58Z" transform="translate(-232.55 -249.99)"/><path class="cls-8" d="M300.81,392.15a.41.41,0,0,0-.19.05.82.82,0,0,0-.12.2c-.05.1-.14.18-.19.27a.75.75,0,0,0-.08.44,1,1,0,0,0,.25.59,1,1,0,0,0,1,.2,1.22,1.22,0,0,0,.69-.7.74.74,0,0,0-.08-.79,1.2,1.2,0,0,0-.53-.26A2,2,0,0,0,300.81,392.15Z" transform="translate(-232.55 -249.99)"/><path class="cls-8" d="M330.25,401.78a.91.91,0,0,0-.45.28,1.37,1.37,0,0,0-.43.61.59.59,0,0,0,.28.66,1,1,0,0,0,.23.08,1.75,1.75,0,0,0,.82,0,1.72,1.72,0,0,0,.91-.85.57.57,0,0,0,.12-.46.49.49,0,0,0-.27-.26,1.24,1.24,0,0,0-.38-.09,2.27,2.27,0,0,0-1,.07" transform="translate(-232.55 -249.99)"/><path class="cls-8" d="M326.61,401.55a2.13,2.13,0,0,0-.57.11.46.46,0,0,0-.29.42.65.65,0,0,0,.11.29,1.83,1.83,0,0,0,.42.55.66.66,0,0,0,.67.15.79.79,0,0,0,.27-.2,2.44,2.44,0,0,0,.59-.77c.1-.23.09-.58-.26-.64a1,1,0,0,0-.34,0A5.8,5.8,0,0,1,326.61,401.55Z" transform="translate(-232.55 -249.99)"/><path class="cls-8" d="M321.88,400.81a.68.68,0,0,0-.29.64.91.91,0,0,0,.51.67,1.71,1.71,0,0,0,.88.21.84.84,0,0,0,.35-.07.66.66,0,0,0,.23-.21.92.92,0,0,0,0-1,1,1,0,0,0-.79-.47A1.56,1.56,0,0,0,321.88,400.81Z" transform="translate(-232.55 -249.99)"/><path class="cls-8" d="M318.35,400.69a.44.44,0,0,0-.29.79,1.48,1.48,0,0,0,.35.25,1.14,1.14,0,0,0,.54.17,1.38,1.38,0,0,0,.29-.08.56.56,0,0,0,.41-.42.66.66,0,0,0-.11-.35.49.49,0,0,0-.48-.26A3.29,3.29,0,0,0,318.35,400.69Z" transform="translate(-232.55 -249.99)"/><path class="cls-8" d="M312.91,399.79a.84.84,0,0,0-.49.49.63.63,0,0,0,.19.51,1.56,1.56,0,0,0,.5.33,3.71,3.71,0,0,0,1,.28,1,1,0,0,0,.48,0,.87.87,0,0,0,.39-.29,1.16,1.16,0,0,0,.24-.5.65.65,0,0,0-.16-.54,1.31,1.31,0,0,0-.27-.19,1.15,1.15,0,0,0-.48-.17c-.17,0-.3.12-.48.06s-.2-.14-.36-.15A1,1,0,0,0,312.91,399.79Z" transform="translate(-232.55 -249.99)"/><path class="cls-8" d="M308.85,399.11a.54.54,0,0,0-.31.05.4.4,0,0,0-.14.15,1,1,0,0,0-.11.45.56.56,0,0,0,0,.25.52.52,0,0,0,.13.17,1.08,1.08,0,0,0,.91.23,1.68,1.68,0,0,0,.79-.42C311,399.28,309.33,399.12,308.85,399.11Z" transform="translate(-232.55 -249.99)"/><path class="cls-8" d="M304.08,399.43a1.16,1.16,0,0,0,1.2.38.72.72,0,0,0,.26-.14.62.62,0,0,0,.12-.73,1.48,1.48,0,0,0-1.13-.8c-.38,0-.58.33-.63.63A.9.9,0,0,0,304.08,399.43Z" transform="translate(-232.55 -249.99)"/><path class="cls-8" d="M298.72,397.33a.68.68,0,0,0,.09.91,1.8,1.8,0,0,0,.59.33,5.25,5.25,0,0,0,1,.32.89.89,0,0,0,.56-.06.55.55,0,0,0,.18-.19.84.84,0,0,0-.19-1,2.77,2.77,0,0,0-.48-.34,1.08,1.08,0,0,0-.93-.25C299.24,397.11,298.93,397.07,298.72,397.33Z" transform="translate(-232.55 -249.99)"/><path class="cls-8" d="M295.11,396.84a.67.67,0,0,0,0,.72,1.15,1.15,0,0,0,.51.41,2.88,2.88,0,0,0,.64.17,1.74,1.74,0,0,0,.68,0,.61.61,0,0,0,.48-.36.73.73,0,0,0-.1-.55.36.36,0,0,0-.12-.16L297,397c-.38-.14-.68-.5-1.1-.55A1,1,0,0,0,295.11,396.84Z" transform="translate(-232.55 -249.99)"/><path class="cls-8" d="M291.34,396.72a1,1,0,0,0,.41.44,2.62,2.62,0,0,0,.64.34.91.91,0,0,0,.69,0,.8.8,0,0,0,.41-.64.71.71,0,0,0,0-.38,1.3,1.3,0,0,0-.7-.51,1.9,1.9,0,0,0-.57-.18C291.75,395.79,291.23,396.34,291.34,396.72Z" transform="translate(-232.55 -249.99)"/><path class="cls-8" d="M288.37,395.59a2,2,0,0,0-.49.22.79.79,0,0,0-.25.19.46.46,0,0,0-.08.19.5.5,0,0,0,.22.7l.13.06.36.14a.48.48,0,0,0,.31,0c.07,0,.11-.07.17-.09s.36.06.54,0a.31.31,0,0,0,.31-.28c0-.08,0-.15,0-.23a1.6,1.6,0,0,1,.13-.3.43.43,0,0,0-.15-.48A1.75,1.75,0,0,0,288.37,395.59Z" transform="translate(-232.55 -249.99)"/><path class="cls-8" d="M284.25,395.42l-.18.16a1.24,1.24,0,0,0-.24.47.42.42,0,0,0,0,.33.45.45,0,0,0,.23.2.48.48,0,0,0,.21.07,2.33,2.33,0,0,0,.28,0,1,1,0,0,1,.3.1,1,1,0,0,0,.79,0,.29.29,0,0,0,.18-.18.53.53,0,0,0-.06-.24,1,1,0,0,1,.17-.72.24.24,0,0,0,0-.32,1.2,1.2,0,0,0-.89-.44C284.62,394.82,284.45,395.19,284.25,395.42Z" transform="translate(-232.55 -249.99)"/><path class="cls-8" d="M282,394.17a1.28,1.28,0,0,0-.82.29,1,1,0,0,0-.38.43.59.59,0,0,0,0,.55,1.38,1.38,0,0,0,.76.5,1.13,1.13,0,0,0,.45.09.79.79,0,0,0,.26-.08,1.1,1.1,0,0,0,.45-.53,2.28,2.28,0,0,0,.17-.67.57.57,0,0,0-.13-.53c-.11-.09-.21-.06-.33,0A2.06,2.06,0,0,1,282,394.17Z" transform="translate(-232.55 -249.99)"/><path class="cls-8" d="M278.1,393.58a1.25,1.25,0,0,0-.3.58,1,1,0,0,0,0,.39.93.93,0,0,0,.12.33.77.77,0,0,0,.22.29.86.86,0,0,0,.29.13,6.91,6.91,0,0,0,.79.16.38.38,0,0,0,.15,0,.24.24,0,0,0,.13-.13,2.52,2.52,0,0,0,.35-1.49.3.3,0,0,0,0-.1.26.26,0,0,0-.15-.07l-.9-.22A.72.72,0,0,0,278.1,393.58Z" transform="translate(-232.55 -249.99)"/><path class="cls-8" d="M275.4,393a2.44,2.44,0,0,0-.29.27c-.07.07-.16.11-.22.18a.9.9,0,0,0-.06.83.42.42,0,0,0,.1.2.37.37,0,0,0,.19.09l.51.16a.19.19,0,0,0,.13,0,.19.19,0,0,0,.1,0l.38-.19.17-.11a.51.51,0,0,0,.15-.21,2.39,2.39,0,0,0,.25-1.05.17.17,0,0,0,0-.12.27.27,0,0,0-.12-.09A1.45,1.45,0,0,0,275.4,393Z" transform="translate(-232.55 -249.99)"/><path class="cls-8" d="M271.17,392.63a.62.62,0,0,0-.12.19.51.51,0,0,0,0,.32,1,1,0,0,0,.35.51.42.42,0,0,0,.26.08c.12,0,.22-.08.33-.09a1.3,1.3,0,0,1,.4.09.62.62,0,0,0,.53-.17,1,1,0,0,0,.25-.46,1,1,0,0,0-.31-1.11.84.84,0,0,0-1.14.05A3.54,3.54,0,0,0,271.17,392.63Z" transform="translate(-232.55 -249.99)"/><path class="cls-8" d="M268.83,391.05a1.53,1.53,0,0,0-.62.32,1.11,1.11,0,0,0-.28.6.41.41,0,0,0,0,.22.57.57,0,0,0,.26.27,2.93,2.93,0,0,0,1,.35.85.85,0,0,0,.39,0,.49.49,0,0,0,.25-.17.89.89,0,0,0,.2-1,1.27,1.27,0,0,0-.18-.27,1,1,0,0,0-.3-.27A.94.94,0,0,0,268.83,391.05Z" transform="translate(-232.55 -249.99)"/><path class="cls-8" d="M265.12,390.78a.76.76,0,0,0-.13.82,1.16,1.16,0,0,0,.72.61.59.59,0,0,0,.23,0,.73.73,0,0,0,.58-.28,1.23,1.23,0,0,0,.23-.58.43.43,0,0,0-.24-.5c-.22-.16-.41-.37-.7-.36S265.18,390.58,265.12,390.78Z" transform="translate(-232.55 -249.99)"/><path class="cls-8" d="M261.61,389.25a.56.56,0,0,0-.44.34.75.75,0,0,0,0,.55,1.18,1.18,0,0,0,.83.68.93.93,0,0,0,.95-.36.74.74,0,0,0-.37-1,1.26,1.26,0,0,0-.33-.1A2.6,2.6,0,0,0,261.61,389.25Z" transform="translate(-232.55 -249.99)"/></g></g><text class="cls-10" transform="translate(287.63 132.55)">E<tspan class="cls-11" x="36.41" y="0">r</tspan><tspan x="60.24" y="0">asmu</tspan><tspan class="cls-12" x="227.7" y="0">s</tspan><tspan class="cls-13" x="255.23" y="0">T</tspan><tspan class="cls-11" x="288.67" y="0">r</tspan><tspan x="312.5" y="0">ac</tspan><tspan class="cls-14" x="381.32" y="0">k</tspan><tspan class="cls-15" x="417.28" y="0">ing</tspan></text><path class="cls-16" d="M1006,395.5a44,44,0,0,0-8.76-4c-3.9-1.28-7.86-2.59-12.65-2-5.43.67-9.18,3.44-12.65,6-6.54,4.83-5.74,7.09-10.71,10s-13.26,5.07-17.51,1c-2.47-2.36-3.83-7.08-2-10a6.87,6.87,0,0,1,4.74-2.69,7.52,7.52,0,0,1,6,1.69c2.33,2.21,2.41,5.89,1.94,8-1.56,7.12-12.78,12.43-22.38,11-5.33-.79-12.42-4-15.57-10-1.25-2.38-1.18-3.88-2.92-6-3-3.64-7.52-4.44-11.68-5-10.86-1.47-16.29-2.2-23.35-1-15.21,2.58-22.24,10.2-38.93,20-19.85,11.65-29.79,17.49-42.82,18-25.68,1-31.35-19.91-52.55-16-17,3.13-19.24,17.68-40.87,20-5.4.58-17.63,1.89-23.36-6-4.39-6-3.19-15.05,0-21,.85-1.58,5.79-10.32,15.57-11,7.18-.5,14.65,3.51,17.52,10,3.37,7.62-.79,15.91-2,18-11.78,21.29-54.19,18.17-70.06,17-30.17-2.22-29.37-12.18-51.58-12-27.9.23-34.88,14.29-64.23,18-23,2.91-42.29-2.88-56.44-8-18.61-6.73-21.7-12.5-41.85-22-12.7-6-29.8-12.27-55.47-16" transform="translate(-232.55 -249.99)"/></svg>